<?xml version="1.0" encoding="utf-8"?>
<!-- Generator: Adobe Illustrator 24.1.1, SVG Export Plug-In . SVG Version: 6.00 Build 0)  -->
<svg version="1.1" id="レイヤー_1" xmlns="http://www.w3.org/2000/svg" xmlns:xlink="http://www.w3.org/1999/xlink" x="0px"
	 y="0px" viewBox="0 0 164 30" style="enable-background:new 0 0 164 30;" xml:space="preserve">
<g>
	<g>
		<g>
			<g>
				<path d="M110.94,25.47v1.13c-0.3,0.01-0.53,0.08-0.69,0.21c-0.1,0.07-0.21,0.21-0.34,0.39l-0.28,0.41
					c-0.21,0.28-0.36,0.49-0.46,0.63c0.24,0.33,0.45,0.49,0.65,0.49c0.13,0,0.23-0.08,0.31-0.23c0.05-0.1,0.08-0.31,0.09-0.63
					l0.81,0c0.01,0.14,0.01,0.24,0.01,0.32c0,0.54-0.13,0.98-0.39,1.31c-0.25,0.31-0.59,0.46-1.02,0.46c-0.35,0-0.7-0.09-1.05-0.27
					c-0.16-0.08-0.35-0.22-0.59-0.4c-0.25,0.16-0.46,0.28-0.63,0.36c-0.45,0.22-0.93,0.33-1.44,0.33c-0.64,0-1.18-0.16-1.61-0.47
					c-0.45-0.32-0.67-0.79-0.67-1.39c0-0.62,0.24-1.12,0.72-1.48c0.24-0.19,0.6-0.38,1.07-0.57c-0.29-0.49-0.44-0.97-0.44-1.44
					c0-0.24,0.04-0.48,0.12-0.71c0.08-0.23,0.18-0.43,0.31-0.59c0.3-0.36,0.71-0.54,1.22-0.54c0.47,0,0.86,0.15,1.16,0.47
					c0.33,0.33,0.5,0.74,0.5,1.22c0,0.44-0.15,0.84-0.43,1.19c-0.12,0.14-0.28,0.28-0.46,0.41c0.45,0.66,0.86,1.17,1.22,1.52
					c0.12-0.17,0.2-0.28,0.23-0.34c0.07-0.11,0.1-0.23,0.1-0.36c0-0.2-0.08-0.3-0.25-0.3c-0.04,0-0.1,0-0.16,0.01v-1.13H110.94z
					 M105.92,26.88c-0.14,0.12-0.23,0.21-0.28,0.28c-0.15,0.19-0.22,0.42-0.22,0.69c0,0.34,0.11,0.62,0.32,0.84
					c0.2,0.21,0.44,0.31,0.72,0.31c0.29,0,0.58-0.1,0.87-0.31C106.81,28.12,106.34,27.52,105.92,26.88z M106.88,25.34
					c0.4-0.22,0.61-0.52,0.61-0.9c0-0.21-0.06-0.39-0.19-0.53c-0.11-0.13-0.24-0.19-0.39-0.19c-0.14,0-0.26,0.06-0.36,0.18
					c-0.1,0.12-0.15,0.26-0.15,0.43c0,0.17,0.06,0.36,0.18,0.58c0.04,0.07,0.1,0.16,0.17,0.27
					C106.83,25.29,106.88,25.35,106.88,25.34z"/>
				<g>
					<path d="M127.1,26.39c0.47,0.07,0.83,0.2,1.1,0.38c0.2,0.14,0.36,0.33,0.47,0.56c0.12,0.25,0.18,0.52,0.18,0.81
						c0,0.34-0.08,0.64-0.24,0.91c-0.17,0.29-0.43,0.49-0.77,0.59c-0.24,0.07-0.54,0.1-0.9,0.1H121l0-1.3l0.22,0
						c0.23-0.01,0.41-0.03,0.53-0.06c0.12-0.03,0.23-0.09,0.31-0.17c0.13-0.13,0.21-0.32,0.24-0.58c0.01-0.08,0.01-0.3,0.01-0.65
						v-1.18c0-0.38-0.01-0.63-0.02-0.74c-0.04-0.33-0.21-0.55-0.5-0.65c-0.1-0.04-0.29-0.07-0.58-0.08L121,24.31l0-1.3h5.36
						c0.85,0,1.44,0.15,1.77,0.44c0.19,0.16,0.33,0.37,0.42,0.62c0.08,0.21,0.13,0.44,0.13,0.68c0,0.34-0.08,0.65-0.25,0.93
						c-0.15,0.25-0.39,0.44-0.72,0.57C127.57,26.29,127.37,26.35,127.1,26.39z M124.27,25.71l1.38,0c0.23,0,0.37-0.01,0.44-0.03
						c0.35-0.08,0.52-0.3,0.52-0.64c0-0.19-0.06-0.35-0.19-0.49c-0.14-0.17-0.43-0.25-0.85-0.25h-1.31V25.71z M124.27,28.44l1.48,0
						c0.34,0,0.57-0.04,0.69-0.13c0.2-0.14,0.3-0.35,0.3-0.62c0-0.17-0.05-0.32-0.14-0.44c-0.1-0.13-0.24-0.2-0.43-0.22
						c-0.15-0.01-0.28-0.02-0.39-0.02l-1.52,0V28.44z"/>
					<path d="M135.11,24.93v1.19c0.18-0.35,0.36-0.63,0.53-0.81c0.35-0.37,0.72-0.56,1.12-0.56c0.33,0,0.6,0.15,0.82,0.43
						c0.18,0.24,0.27,0.53,0.27,0.86c0,0.31-0.09,0.58-0.26,0.79c-0.18,0.22-0.39,0.33-0.64,0.33c-0.21,0-0.38-0.08-0.53-0.25
						c-0.13-0.14-0.2-0.37-0.2-0.67c-0.08-0.02-0.15-0.03-0.19-0.03c-0.24,0-0.45,0.13-0.63,0.4c-0.18,0.27-0.27,0.63-0.27,1.08
						c0,0.27,0.05,0.47,0.14,0.6c0.1,0.13,0.28,0.21,0.53,0.24c0.09,0.01,0.21,0.01,0.36,0.01v1.21h-3.81l0-1.2l0.22-0.01
						c0.21-0.01,0.37-0.04,0.46-0.07c0.17-0.06,0.27-0.2,0.3-0.39c0.02-0.11,0.03-0.28,0.03-0.52v-0.42c0-0.38-0.04-0.62-0.11-0.73
						c-0.08-0.11-0.19-0.18-0.34-0.22c-0.05-0.01-0.17-0.03-0.33-0.03l-0.22-0.01l0-1.2H135.11z"/>
					<path d="M144.75,28.34l1.04,0c-0.18,0.4-0.38,0.72-0.61,0.95c-0.49,0.47-1.15,0.71-1.98,0.71c-0.79,0-1.47-0.21-2.03-0.63
						c-0.31-0.24-0.55-0.55-0.72-0.94c-0.15-0.34-0.23-0.71-0.23-1.1c0-0.55,0.14-1.04,0.42-1.46c0.27-0.41,0.65-0.71,1.16-0.91
						c0.37-0.15,0.8-0.22,1.27-0.22c1.12,0,1.92,0.41,2.38,1.22c0.2,0.34,0.32,0.72,0.37,1.13c0.02,0.15,0.03,0.37,0.03,0.66h-3.54
						c0.09,0.36,0.23,0.63,0.42,0.82c0.25,0.24,0.56,0.36,0.93,0.36C144.1,28.92,144.46,28.72,144.75,28.34z M144.08,26.78
						c-0.03-0.31-0.1-0.55-0.21-0.71c-0.16-0.25-0.39-0.38-0.68-0.38c-0.28,0-0.52,0.13-0.71,0.38c-0.13,0.18-0.21,0.42-0.24,0.71
						H144.08z"/>
					<path d="M154.32,27.59h0.69l0,0.68c0,0.39-0.01,0.66-0.03,0.8c-0.06,0.35-0.23,0.59-0.52,0.73c-0.21,0.1-0.51,0.15-0.89,0.15
						c-0.6,0-1.01-0.14-1.24-0.41c-0.12-0.15-0.2-0.34-0.25-0.57c-0.23,0.28-0.46,0.48-0.67,0.61c-0.42,0.27-0.88,0.4-1.38,0.4
						c-0.5,0-0.88-0.12-1.16-0.35c-0.13-0.12-0.24-0.28-0.32-0.47c-0.08-0.2-0.12-0.4-0.12-0.61c0-0.43,0.15-0.79,0.44-1.07
						c0.23-0.23,0.58-0.38,1.03-0.47c0.11-0.02,0.38-0.05,0.81-0.09c0.91-0.08,1.36-0.31,1.36-0.69c0-0.11-0.03-0.21-0.09-0.32
						c-0.06-0.1-0.14-0.18-0.23-0.24c-0.16-0.1-0.37-0.14-0.61-0.14c-0.32,0-0.58,0.11-0.77,0.32c0.1,0.14,0.15,0.26,0.15,0.36
						c0,0.17-0.08,0.32-0.24,0.44c-0.15,0.11-0.32,0.16-0.51,0.16c-0.25,0-0.47-0.06-0.64-0.19c-0.2-0.14-0.31-0.35-0.31-0.64
						c0-0.42,0.24-0.75,0.71-0.98c0.38-0.18,0.97-0.28,1.77-0.28c0.88,0,1.54,0.18,1.99,0.53c0.24,0.2,0.41,0.42,0.49,0.68
						c0.06,0.2,0.09,0.49,0.09,0.89l0,1.21c0,0.33,0.01,0.53,0.02,0.57c0.03,0.13,0.1,0.19,0.21,0.19c0.13,0,0.2-0.07,0.22-0.21
						c0.01-0.05,0.01-0.17,0.02-0.38L154.32,27.59z M152.08,27.24c-0.14,0.14-0.29,0.24-0.43,0.32c-0.14,0.07-0.4,0.18-0.8,0.31
						c-0.2,0.07-0.31,0.21-0.31,0.41c0,0.14,0.06,0.25,0.18,0.33c0.1,0.07,0.21,0.1,0.34,0.1c0.33,0,0.59-0.12,0.8-0.37
						c0.16-0.19,0.23-0.45,0.23-0.78L152.08,27.24z"/>
					<path d="M163.07,23.01v4.54c0,0.38,0.04,0.62,0.11,0.73c0.08,0.11,0.19,0.19,0.35,0.22c0.04,0.01,0.15,0.02,0.33,0.04
						l0.14,0.01l0,1.21h-2.73v-0.62c-0.18,0.22-0.34,0.39-0.48,0.5c-0.32,0.25-0.68,0.37-1.08,0.37c-0.6,0-1.11-0.25-1.54-0.74
						c-0.46-0.52-0.69-1.16-0.69-1.9c0-0.72,0.21-1.34,0.64-1.86c0.42-0.51,0.93-0.77,1.52-0.77c0.59,0,1.13,0.28,1.62,0.83V25.2
						c0-0.31-0.02-0.51-0.05-0.61c-0.07-0.19-0.22-0.31-0.44-0.35c-0.08-0.02-0.18-0.03-0.32-0.04v-1.2L163.07,23.01z M160.37,26.24
						c-0.28,0-0.51,0.12-0.68,0.36c-0.16,0.21-0.24,0.47-0.24,0.77c0,0.36,0.1,0.65,0.3,0.87c0.17,0.18,0.38,0.27,0.64,0.27
						c0.3,0,0.53-0.12,0.7-0.36c0.16-0.22,0.24-0.48,0.24-0.79c0-0.34-0.1-0.63-0.31-0.86C160.86,26.33,160.64,26.23,160.37,26.24z"
						/>
				</g>
				<g>
					<path d="M60.06,23.01l0,2.63l-1.06,0c-0.04-0.47-0.11-0.8-0.23-0.98c-0.15-0.23-0.46-0.34-0.93-0.35H55.9l0,1.41l0.33,0
						c0.24,0,0.42-0.01,0.53-0.05c0.29-0.08,0.45-0.33,0.45-0.76h1.07v2.96l-1.07,0c0-0.36-0.08-0.6-0.23-0.73
						c-0.09-0.07-0.22-0.11-0.4-0.12c-0.11,0-0.23-0.01-0.34-0.02H55.9l0,0.25c0,0.27,0.02,0.48,0.06,0.63
						c0.04,0.13,0.1,0.24,0.2,0.33c0.1,0.09,0.21,0.15,0.33,0.17c0.14,0.03,0.3,0.05,0.5,0.05l0.21,0.01v1.3l-4.56,0l0-1.3l0.2,0
						c0.23-0.01,0.41-0.03,0.53-0.06c0.12-0.03,0.23-0.09,0.31-0.17c0.13-0.13,0.21-0.32,0.24-0.58c0.01-0.08,0.01-0.3,0.01-0.65
						l0-1.18c0-0.38-0.01-0.63-0.02-0.75c-0.04-0.33-0.21-0.55-0.5-0.65c-0.1-0.04-0.29-0.07-0.58-0.08l-0.2-0.01l0-1.3H60.06z"/>
					<path d="M66.22,24.93v1.19c0.18-0.35,0.36-0.63,0.53-0.81c0.35-0.37,0.72-0.56,1.12-0.56c0.33,0,0.6,0.15,0.82,0.43
						c0.18,0.24,0.27,0.53,0.27,0.86c0,0.31-0.09,0.57-0.26,0.79c-0.18,0.22-0.39,0.33-0.64,0.33c-0.21,0-0.38-0.08-0.53-0.25
						c-0.13-0.14-0.2-0.37-0.2-0.67c-0.08-0.02-0.15-0.03-0.19-0.03c-0.24,0-0.45,0.13-0.63,0.4c-0.18,0.27-0.27,0.63-0.28,1.08
						c0,0.27,0.05,0.47,0.14,0.6c0.1,0.13,0.28,0.21,0.53,0.24c0.09,0.01,0.21,0.01,0.36,0.01v1.21l-3.81,0l0-1.2l0.22-0.01
						c0.21-0.01,0.37-0.04,0.46-0.07c0.17-0.07,0.27-0.2,0.3-0.39c0.02-0.11,0.03-0.28,0.03-0.52v-0.42c0-0.38-0.04-0.62-0.11-0.73
						c-0.08-0.11-0.19-0.18-0.34-0.22c-0.06-0.01-0.17-0.02-0.33-0.03l-0.22-0.01l0-1.2L66.22,24.93z"/>
					<path d="M78.88,24.93l0,2.62c0.01,0.38,0.04,0.62,0.12,0.73c0.08,0.12,0.19,0.19,0.34,0.22c0.06,0.01,0.17,0.02,0.33,0.03
						l0.23,0.01l0,1.2l-2.82,0v-0.8c-0.21,0.24-0.38,0.42-0.52,0.54c-0.38,0.31-0.85,0.46-1.4,0.46c-0.67,0-1.17-0.24-1.51-0.72
						c-0.15-0.21-0.24-0.48-0.29-0.82c-0.02-0.18-0.03-0.41-0.03-0.68v-0.6c0-0.38-0.04-0.63-0.11-0.73
						c-0.08-0.11-0.19-0.18-0.34-0.22c-0.04-0.01-0.15-0.02-0.33-0.03l-0.09-0.01l0-1.2l2.68,0v2.27c0,0.49,0.07,0.83,0.23,1.03
						c0.16,0.21,0.39,0.32,0.7,0.32c0.36,0,0.63-0.15,0.82-0.46c0.14-0.23,0.21-0.5,0.21-0.81v-0.14c0-0.38-0.04-0.63-0.11-0.73
						c-0.08-0.11-0.19-0.18-0.35-0.22c-0.04-0.01-0.15-0.02-0.33-0.03l-0.18-0.01v-1.2L78.88,24.93z"/>
					<path d="M86.2,24.93l0,2.62c0,0.38,0.04,0.62,0.11,0.73c0.08,0.12,0.19,0.19,0.34,0.22c0.04,0.01,0.15,0.02,0.33,0.04
						l0.18,0.01l0,1.2l-3.76,0l0-1.2l0.23-0.01c0.21-0.01,0.36-0.04,0.45-0.07c0.17-0.07,0.27-0.2,0.3-0.39
						c0.02-0.11,0.03-0.28,0.03-0.52v-0.42c0-0.38-0.04-0.63-0.11-0.73c-0.08-0.11-0.19-0.18-0.34-0.22
						c-0.06-0.01-0.17-0.02-0.33-0.03l-0.23-0.01v-1.2H86.2z M85.27,22.62c0.24,0,0.46,0.1,0.64,0.3c0.18,0.19,0.26,0.42,0.26,0.69
						c0,0.29-0.09,0.52-0.28,0.71c-0.16,0.16-0.36,0.24-0.61,0.24c-0.26,0-0.48-0.09-0.65-0.27c-0.17-0.18-0.26-0.41-0.26-0.7
						c0-0.3,0.11-0.55,0.32-0.74C84.85,22.7,85.04,22.62,85.27,22.62z"/>
					<path d="M93.58,23.35v1.58h1.15v1.2l-1.15,0v2.07c0,0.24,0.01,0.39,0.03,0.46c0.04,0.11,0.1,0.16,0.2,0.16
						c0.15,0,0.22-0.14,0.22-0.41l0-0.18v-0.65l0.71,0l0,0.97c0,0.34-0.05,0.6-0.14,0.78c-0.13,0.23-0.33,0.39-0.62,0.49
						c-0.22,0.07-0.45,0.11-0.69,0.11c-0.53,0-0.93-0.17-1.2-0.5c-0.13-0.16-0.21-0.38-0.25-0.66c-0.03-0.18-0.04-0.41-0.04-0.71
						v-1.92h-0.84v-1.2c0.89-0.04,1.34-0.56,1.33-1.59H93.58z"/>
				</g>
			</g>
		</g>
		<g>
			<g>
				<g>
					<path d="M65.2,0.52h2.08l0,4.6H65.2c-0.24-0.57-0.54-1.03-0.92-1.35c-0.63-0.57-1.52-1.01-2.67-1.32
						c-0.79-0.22-1.52-0.33-2.19-0.33c-0.77,0-1.44,0.14-1.99,0.41c-0.27,0.13-0.48,0.31-0.63,0.53c-0.16,0.22-0.23,0.45-0.23,0.69
						c0,0.54,0.29,0.89,0.89,1.07c0.08,0.02,0.34,0.07,0.8,0.16c0.46,0.08,0.76,0.13,0.9,0.14l2.97,0.33
						c1.12,0.13,1.92,0.27,2.41,0.43c1.08,0.34,1.87,0.93,2.38,1.75c0.48,0.78,0.72,1.69,0.72,2.74c0,1.55-0.53,2.75-1.59,3.6
						c-1.07,0.85-2.5,1.28-4.28,1.28c-1.51,0-2.95-0.31-4.31-0.93c-0.56-0.25-0.89-0.4-0.97-0.45c-0.28-0.12-0.57-0.18-0.86-0.18
						c-0.62,0-0.95,0.34-0.99,1.02h-1.98l0-5.08l2.13,0c0.15,0.53,0.35,0.97,0.62,1.32c0.59,0.75,1.49,1.32,2.68,1.73
						c0.77,0.26,1.61,0.38,2.52,0.38c0.83,0,1.56-0.15,2.17-0.44c0.66-0.31,0.99-0.73,0.99-1.25c0-0.47-0.3-0.81-0.91-1.01
						c-0.3-0.1-0.89-0.21-1.75-0.33l-2.84-0.4c-1.38-0.2-2.32-0.39-2.81-0.57c-1.07-0.41-1.85-1.04-2.33-1.88
						c-0.4-0.71-0.59-1.49-0.6-2.32c0-1.49,0.6-2.69,1.79-3.6C55.44,0.42,56.88,0,58.67,0c1.4,0,3.03,0.35,4.86,1.04
						c0.49,0.18,0.82,0.27,1,0.27C64.97,1.31,65.2,1.05,65.2,0.52z"/>
				</g>
				<g>
					<path d="M84.26,0.4c0,0,5.42,10.18,5.59,10.45c0.31,0.47,0.71,0.82,1.21,1.04c0.21,0.08,0.45,0.14,0.73,0.16v2.8l-8.39,0v-2.8
						c0.72-0.01,1.2-0.07,1.45-0.18c0.3-0.13,0.45-0.36,0.45-0.69c0-0.24-0.09-0.57-0.27-0.98l-6.59,0
						c-0.19,0.33-0.28,0.61-0.28,0.85c0,0.45,0.22,0.75,0.66,0.88c0.15,0.05,0.56,0.09,1.25,0.13v2.8h-6.72l0-2.8
						c0.7-0.04,1.24-0.2,1.63-0.5c0.35-0.25,0.78-0.95,1.29-2.08l4.8-9.07H84.26z M83.96,7.85l-2.3-4.32l-2.21,4.32L83.96,7.85z"/>
				</g>
				<g>
					<path d="M114.18,14.85l-2.09,0l-9.1-9.05v3.21c0,0.8,0.01,1.32,0.04,1.57c0.09,0.7,0.41,1.16,0.96,1.38
						c0.19,0.09,0.56,0.14,1.12,0.15l0.4,0v2.74l-7.31,0V12.1h0.4c0.37,0,0.69-0.04,0.98-0.11c0.24-0.06,0.46-0.18,0.65-0.37
						c0.19-0.2,0.32-0.42,0.39-0.68c0.07-0.26,0.1-0.58,0.11-0.94c0-0.15,0-0.48,0-0.99l0-2.59c0-0.85-0.01-1.4-0.04-1.66
						c-0.08-0.73-0.41-1.22-0.96-1.46c-0.2-0.1-0.58-0.15-1.13-0.17H98.2l0-2.72l5.75,0l7.93,7.94V6.39c0-0.84-0.01-1.39-0.04-1.65
						c-0.08-0.73-0.41-1.22-0.96-1.45c-0.21-0.1-0.58-0.15-1.13-0.17l-0.42,0l0-2.72l7.33,0l0,2.73l-0.36,0
						c-0.37,0.01-0.69,0.05-0.98,0.12c-0.25,0.05-0.46,0.18-0.65,0.38c-0.19,0.19-0.32,0.42-0.39,0.68
						c-0.07,0.26-0.11,0.57-0.11,0.93c0,0.06,0,0.39,0,1.01V14.85z"/>
				</g>
				<g>
					<path d="M136.07,9.29h2.22c-0.21,0.92-0.5,1.7-0.86,2.32c-0.36,0.63-0.84,1.22-1.44,1.76c-1.42,1.24-3.37,1.87-5.87,1.87
						c-2.41,0-4.4-0.62-5.95-1.87c-1.77-1.41-2.65-3.34-2.65-5.78c0-1.69,0.45-3.19,1.33-4.47c0.79-1.13,1.94-1.98,3.44-2.54
						c1.07-0.4,2.17-0.59,3.3-0.59c1.37,0,2.77,0.29,4.21,0.88c0.6,0.24,1.03,0.36,1.28,0.36c0.45,0,0.71-0.26,0.78-0.76h2.44v5.59
						h-2.44c-0.15-0.57-0.33-1.02-0.56-1.37c-0.47-0.72-1.08-1.25-1.82-1.58c-0.73-0.33-1.49-0.49-2.27-0.49
						c-1.25,0-2.33,0.44-3.24,1.32c-0.96,0.94-1.44,2.09-1.44,3.46c0,1.39,0.46,2.59,1.38,3.59c0.95,1.03,2.15,1.55,3.6,1.55
						c1.3,0,2.4-0.43,3.29-1.3C135.27,10.79,135.7,10.14,136.07,9.29z"/>
				</g>
				<g>
					<path d="M151.94,9.05l0,0.25c0,0.69,0.04,1.2,0.12,1.54c0.14,0.56,0.49,0.92,1.04,1.08c0.19,0.05,0.39,0.08,0.6,0.09
						c0.2,0.01,0.33,0.02,0.39,0.02l0.07,0.01l0,2.79l-8.62,0l0-2.79l0.43-0.01c0.45-0.01,0.8-0.06,1.04-0.13
						c0.24-0.08,0.45-0.2,0.62-0.38c0.26-0.29,0.42-0.7,0.47-1.25c0.02-0.18,0.03-0.64,0.02-1.4l0-2.53c0-0.82-0.01-1.35-0.04-1.6
						c-0.08-0.7-0.41-1.17-0.97-1.39c-0.18-0.09-0.56-0.15-1.13-0.17l-0.43-0.01l0-2.78l8.62,0v2.78l-0.07,0.01
						c-0.05,0.02-0.18,0.03-0.39,0.03c-0.75,0.04-1.26,0.32-1.54,0.86c-0.16,0.37-0.23,0.99-0.23,1.86l0,0.24l5.66,0l0-0.25
						c0-0.7-0.04-1.21-0.11-1.55c-0.14-0.56-0.49-0.91-1.05-1.07c-0.24-0.04-0.57-0.08-0.99-0.13l-0.07-0.01V0.4l8.62,0l0,2.79
						l-0.43,0.01c-0.44,0.01-0.79,0.06-1.03,0.14c-0.24,0.08-0.45,0.2-0.62,0.38c-0.26,0.28-0.42,0.69-0.47,1.24
						c-0.02,0.18-0.02,0.65-0.02,1.41v2.53c0,0.82,0.01,1.35,0.04,1.59c0.09,0.71,0.41,1.18,0.97,1.41
						c0.18,0.09,0.55,0.14,1.13,0.16l0.43,0.01v2.79l-8.62,0v-2.79l0.07-0.01c0.06-0.01,0.19-0.01,0.39-0.02
						c0.74-0.03,1.26-0.32,1.54-0.87c0.16-0.36,0.23-0.98,0.23-1.85l0-0.24L151.94,9.05z"/>
				</g>
			</g>
		</g>
	</g>
	<g>
		<path d="M45.28,30L27.96,0L17.32,0L0,30l11.33,0l0,0h16.28L45.28,30z M18.01,1.2l8.56,0L10.64,28.8l-8.56,0L18.01,1.2z
			 M19.82,15.3l7.79-13.5l7.79,13.5l7.8,13.5l-15.59,0l-15.59,0L19.82,15.3z"/>
		<g>
			<g>
				<path d="M21.82,4.57l0.45,0.26l-0.57,0.99l-0.45-0.26c0.02-0.15,0.01-0.29-0.03-0.41c-0.06-0.2-0.2-0.41-0.41-0.62
					c-0.14-0.15-0.29-0.26-0.43-0.35c-0.17-0.1-0.33-0.15-0.48-0.16c-0.07,0-0.14,0.01-0.2,0.04c-0.06,0.03-0.11,0.07-0.14,0.12
					c-0.07,0.12-0.05,0.23,0.06,0.34c0.01,0.01,0.06,0.06,0.15,0.13c0.09,0.08,0.15,0.12,0.18,0.14l0.6,0.44
					c0.22,0.17,0.38,0.3,0.47,0.39c0.19,0.21,0.29,0.43,0.29,0.68c0.01,0.23-0.06,0.45-0.19,0.68c-0.19,0.34-0.46,0.53-0.79,0.58
					c-0.34,0.05-0.7-0.04-1.08-0.26c-0.33-0.19-0.6-0.43-0.82-0.74c-0.09-0.13-0.14-0.2-0.15-0.22c-0.05-0.06-0.1-0.11-0.16-0.15
					c-0.13-0.08-0.25-0.05-0.34,0.1l-0.43-0.25l0.63-1.1l0.46,0.26C18.4,5.37,18.39,5.49,18.4,5.6c0.03,0.23,0.16,0.47,0.36,0.71
					c0.13,0.15,0.3,0.28,0.5,0.4c0.18,0.1,0.35,0.16,0.52,0.18c0.18,0.01,0.31-0.03,0.37-0.15c0.06-0.1,0.04-0.21-0.07-0.33
					c-0.05-0.06-0.17-0.16-0.34-0.29l-0.56-0.44c-0.27-0.22-0.45-0.37-0.53-0.47c-0.18-0.22-0.27-0.45-0.27-0.7
					c0-0.2,0.06-0.39,0.16-0.57c0.19-0.32,0.46-0.51,0.84-0.55c0.34-0.04,0.71,0.05,1.09,0.27c0.3,0.17,0.61,0.45,0.92,0.83
					c0.08,0.1,0.14,0.16,0.18,0.18C21.67,4.71,21.75,4.68,21.82,4.57z"/>
			</g>
			<g>
				<path d="M18.65,8.36c0,0-0.1,2.87-0.1,2.95c0.01,0.14,0.05,0.26,0.13,0.38c0.04,0.04,0.08,0.09,0.14,0.12l-0.35,0.6l-1.81-1.04
					l0.35-0.6c0.16,0.09,0.27,0.14,0.33,0.14c0.08,0.01,0.14-0.02,0.18-0.09c0.03-0.05,0.05-0.13,0.06-0.25l-1.42-0.82
					C16.09,9.8,16.03,9.85,16,9.9c-0.06,0.1-0.04,0.19,0.03,0.27c0.03,0.03,0.11,0.09,0.25,0.18l-0.35,0.6l-1.45-0.84l0.35-0.6
					c0.16,0.08,0.29,0.11,0.41,0.1c0.11-0.01,0.29-0.11,0.54-0.29l2.17-1.36L18.65,8.36z M17.65,9.93l0.04-1.22l-1.02,0.66
					L17.65,9.93z"/>
			</g>
			<g>
				<path d="M15.34,16.61l-0.45-0.26l-0.84-3.09l-0.4,0.69c-0.1,0.17-0.16,0.29-0.19,0.34c-0.07,0.16-0.06,0.3,0.04,0.42
					c0.03,0.04,0.1,0.1,0.22,0.17l0.09,0.05l-0.34,0.59l-1.58-0.91l0.34-0.59l0.09,0.05c0.08,0.05,0.15,0.08,0.23,0.1
					c0.06,0.02,0.12,0.02,0.19,0c0.07-0.02,0.12-0.05,0.17-0.1c0.05-0.05,0.1-0.11,0.14-0.19c0.02-0.03,0.06-0.1,0.12-0.21
					l0.32-0.56c0.11-0.18,0.17-0.3,0.2-0.36c0.07-0.17,0.06-0.31-0.03-0.44c-0.03-0.05-0.11-0.11-0.22-0.18l-0.08-0.05l0.34-0.59
					l1.24,0.72l0.72,2.7l0.24-0.42c0.11-0.18,0.17-0.3,0.2-0.36c0.07-0.17,0.06-0.31-0.03-0.43c-0.03-0.05-0.11-0.11-0.22-0.18
					l-0.09-0.05l0.34-0.59l1.58,0.91l-0.34,0.59l-0.08-0.04c-0.08-0.04-0.16-0.08-0.23-0.1c-0.06-0.02-0.12-0.02-0.19,0
					c-0.06,0.02-0.12,0.05-0.17,0.1c-0.05,0.05-0.09,0.11-0.14,0.19c-0.01,0.01-0.05,0.09-0.13,0.22L15.34,16.61z"/>
			</g>
			<g>
				<path d="M13.25,19.93l0.48,0.28c-0.16,0.17-0.32,0.3-0.48,0.39c-0.16,0.09-0.33,0.16-0.53,0.2c-0.46,0.09-0.96-0.02-1.5-0.33
					c-0.52-0.3-0.87-0.68-1.05-1.15c-0.21-0.52-0.16-1.05,0.15-1.58c0.21-0.37,0.49-0.63,0.85-0.8c0.31-0.15,0.66-0.19,1.06-0.12
					c0.28,0.05,0.54,0.14,0.79,0.28c0.29,0.17,0.56,0.41,0.8,0.71c0.1,0.13,0.18,0.21,0.23,0.24c0.1,0.06,0.18,0.03,0.26-0.07
					l0.53,0.3l-0.7,1.21l-0.53-0.3c0.04-0.14,0.06-0.26,0.05-0.37c-0.01-0.21-0.08-0.4-0.2-0.57c-0.12-0.16-0.26-0.29-0.43-0.39
					c-0.27-0.16-0.56-0.2-0.86-0.12c-0.32,0.08-0.57,0.27-0.74,0.57c-0.17,0.3-0.22,0.62-0.15,0.95c0.08,0.34,0.27,0.6,0.58,0.78
					c0.28,0.16,0.57,0.2,0.87,0.13C12.9,20.16,13.07,20.07,13.25,19.93z"/>
			</g>
			<g>
				<path d="M8.69,23.35L8.66,23.4c-0.09,0.15-0.14,0.27-0.17,0.35c-0.04,0.14-0.01,0.26,0.09,0.36c0.03,0.03,0.07,0.07,0.12,0.09
					c0.04,0.03,0.07,0.05,0.08,0.05l0.01,0.01l-0.35,0.6L6.59,23.8l0.35-0.6l0.09,0.05c0.1,0.05,0.18,0.09,0.24,0.1
					s0.12,0.01,0.18,0c0.09-0.03,0.18-0.1,0.26-0.21c0.03-0.04,0.09-0.13,0.18-0.3l0.32-0.54c0.1-0.18,0.17-0.29,0.19-0.35
					c0.07-0.16,0.06-0.3-0.04-0.42c-0.03-0.04-0.1-0.1-0.22-0.18l-0.09-0.06l0.35-0.6l1.86,1.07l-0.35,0.6l-0.02-0.01
					c-0.01,0-0.04-0.02-0.09-0.04c-0.17-0.09-0.31-0.09-0.44-0.01c-0.08,0.06-0.17,0.18-0.28,0.37l-0.03,0.05l1.22,0.7l0.03-0.05
					c0.09-0.15,0.14-0.27,0.17-0.35c0.04-0.14,0.01-0.26-0.09-0.36c-0.05-0.04-0.11-0.09-0.2-0.15l-0.01-0.01l0.35-0.6l1.86,1.07
					l-0.35,0.6l-0.09-0.05c-0.1-0.05-0.18-0.08-0.24-0.1c-0.06-0.01-0.12-0.01-0.18,0c-0.09,0.03-0.18,0.1-0.26,0.21
					c-0.03,0.04-0.09,0.14-0.18,0.3l-0.31,0.55c-0.1,0.18-0.17,0.29-0.19,0.35c-0.07,0.16-0.06,0.31,0.04,0.42
					c0.03,0.04,0.1,0.1,0.22,0.18l0.09,0.06l-0.35,0.6l-1.86-1.08l0.35-0.6l0.02,0.01c0.01,0.01,0.04,0.02,0.09,0.04
					c0.17,0.09,0.31,0.09,0.44,0c0.08-0.06,0.17-0.18,0.28-0.37l0.03-0.05L8.69,23.35z"/>
			</g>
		</g>
	</g>
</g>
</svg>
