<?xml version="1.0" encoding="utf-8"?>
<!-- Generator: Adobe Illustrator 24.1.1, SVG Export Plug-In . SVG Version: 6.00 Build 0)  -->
<svg version="1.1" id="レイヤー_1" xmlns="http://www.w3.org/2000/svg" xmlns:xlink="http://www.w3.org/1999/xlink" x="0px"
	 y="0px" viewBox="0 0 390 415" style="enable-background:new 0 0 390 415;" xml:space="preserve">
<style type="text/css">
	.st0{fill:#FFFFFF;}
</style>
<g>
	<g>
		<g>
			<g>
				<path class="st0" d="M204.35,399.13v3.95c-1.06,0.04-1.86,0.29-2.41,0.72c-0.34,0.26-0.73,0.73-1.18,1.38l-0.98,1.42
					c-0.72,0.97-1.27,1.7-1.62,2.2c0.83,1.15,1.58,1.73,2.26,1.73c0.46,0,0.82-0.27,1.08-0.8c0.18-0.34,0.28-1.08,0.3-2.21l2.84,0
					c0.02,0.48,0.03,0.85,0.03,1.13c0,1.9-0.46,3.43-1.38,4.6c-0.86,1.09-2.04,1.62-3.55,1.62c-1.23,0-2.46-0.32-3.69-0.95
					c-0.55-0.29-1.23-0.76-2.05-1.41c-0.88,0.56-1.61,0.98-2.19,1.25c-1.59,0.77-3.26,1.15-5.03,1.15c-2.25,0-4.13-0.55-5.64-1.65
					c-1.57-1.14-2.35-2.76-2.35-4.85c0-2.18,0.83-3.91,2.51-5.19c0.85-0.66,2.1-1.32,3.73-2c-1.03-1.73-1.54-3.41-1.54-5.04
					c0-0.84,0.14-1.67,0.41-2.49c0.27-0.81,0.64-1.51,1.1-2.07c1.04-1.26,2.47-1.89,4.29-1.88c1.63-0.01,2.99,0.54,4.07,1.63
					c1.16,1.17,1.73,2.59,1.73,4.28c0,1.54-0.5,2.93-1.52,4.15c-0.42,0.51-0.96,0.98-1.62,1.42c1.56,2.31,2.99,4.08,4.28,5.33
					c0.43-0.61,0.7-0.99,0.81-1.18c0.24-0.39,0.36-0.81,0.36-1.26c0-0.71-0.3-1.06-0.89-1.06c-0.14,0-0.34,0.02-0.57,0.04v-3.94
					L204.35,399.13z M186.78,404.07c-0.48,0.41-0.81,0.74-0.98,0.97c-0.51,0.67-0.76,1.47-0.76,2.4c0,1.18,0.38,2.16,1.13,2.96
					c0.69,0.72,1.53,1.07,2.51,1.07c1.01,0,2.03-0.36,3.04-1.09C189.89,408.42,188.25,406.32,186.78,404.07z M190.14,398.69
					c1.41-0.77,2.12-1.83,2.12-3.16c0-0.75-0.22-1.37-0.68-1.87c-0.39-0.44-0.85-0.66-1.38-0.66c-0.5,0-0.91,0.21-1.25,0.63
					c-0.34,0.43-0.51,0.93-0.51,1.5c0,0.58,0.21,1.26,0.64,2.02c0.13,0.23,0.34,0.55,0.61,0.95
					C189.97,398.51,190.12,398.71,190.14,398.69z"/>
				<g>
					<path class="st0" d="M260.87,402.38c1.64,0.24,2.92,0.68,3.83,1.33c0.72,0.5,1.27,1.15,1.66,1.97
						c0.43,0.88,0.64,1.82,0.64,2.84c0,1.18-0.28,2.25-0.83,3.2c-0.6,1.03-1.5,1.71-2.7,2.05c-0.84,0.23-1.89,0.35-3.14,0.35h-20.79
						l0-4.57l0.76-0.01c0.8-0.02,1.42-0.09,1.85-0.22c0.43-0.12,0.8-0.32,1.1-0.61c0.47-0.45,0.75-1.13,0.84-2.04
						c0.03-0.27,0.04-1.03,0.04-2.28v-4.14c0-1.33-0.02-2.2-0.07-2.61c-0.16-1.16-0.73-1.92-1.74-2.28
						c-0.33-0.15-1.01-0.24-2.02-0.28l-0.76-0.02l0-4.55h18.77c2.99,0,5.05,0.51,6.21,1.52c0.65,0.58,1.15,1.3,1.48,2.18
						c0.3,0.75,0.44,1.54,0.44,2.38c0,1.2-0.29,2.29-0.89,3.24c-0.54,0.87-1.37,1.53-2.51,1.99
						C262.54,402.03,261.82,402.21,260.87,402.38z M250.99,399.99l4.85,0c0.8,0,1.3-0.03,1.52-0.09c1.21-0.29,1.82-1.03,1.82-2.24
						c0-0.66-0.21-1.24-0.65-1.73c-0.51-0.58-1.5-0.86-2.97-0.87l-4.57,0V399.99z M250.99,409.55l5.17,0c1.18,0,1.99-0.15,2.42-0.45
						c0.71-0.51,1.06-1.23,1.06-2.16c0-0.6-0.17-1.11-0.5-1.54c-0.35-0.45-0.85-0.71-1.49-0.78c-0.52-0.05-0.98-0.07-1.36-0.07
						l-5.31,0L250.99,409.55z"/>
					<path class="st0" d="M288.9,397.26v4.17c0.64-1.24,1.26-2.19,1.86-2.84c1.22-1.3,2.54-1.95,3.93-1.95
						c1.16,0,2.11,0.51,2.87,1.52c0.63,0.86,0.95,1.85,0.95,3.01c0,1.1-0.3,2.01-0.9,2.75c-0.63,0.77-1.38,1.16-2.23,1.16
						c-0.73,0-1.34-0.29-1.85-0.87c-0.46-0.51-0.69-1.29-0.69-2.35c-0.29-0.07-0.52-0.11-0.67-0.11c-0.83,0-1.57,0.47-2.21,1.4
						c-0.64,0.94-0.96,2.19-0.96,3.77c0,0.95,0.17,1.65,0.5,2.09c0.35,0.45,0.97,0.73,1.85,0.83c0.31,0.04,0.73,0.05,1.28,0.05v4.22
						h-13.34l0-4.22l0.77-0.03c0.75-0.05,1.28-0.13,1.6-0.25c0.58-0.23,0.93-0.68,1.04-1.37c0.08-0.38,0.12-0.99,0.12-1.83v-1.47
						c-0.01-1.33-0.14-2.18-0.39-2.56c-0.28-0.39-0.68-0.64-1.2-0.76c-0.19-0.04-0.58-0.09-1.16-0.12l-0.77-0.04l0-4.21H288.9z"/>
					<path class="st0" d="M322.66,409.19l3.66,0c-0.62,1.41-1.33,2.52-2.14,3.32c-1.71,1.66-4.02,2.49-6.92,2.49
						c-2.77,0-5.14-0.74-7.1-2.22c-1.08-0.82-1.92-1.91-2.52-3.27c-0.53-1.19-0.79-2.49-0.79-3.87c0-1.93,0.49-3.63,1.48-5.12
						c0.94-1.43,2.28-2.49,4.05-3.18c1.31-0.51,2.78-0.77,4.43-0.77c3.92,0.01,6.7,1.42,8.34,4.26c0.7,1.2,1.13,2.52,1.31,3.96
						c0.07,0.53,0.11,1.3,0.12,2.3h-12.39c0.3,1.26,0.79,2.21,1.46,2.87c0.88,0.84,1.96,1.26,3.25,1.26
						C320.38,411.21,321.64,410.54,322.66,409.19z M320.3,403.74c-0.1-1.09-0.34-1.92-0.73-2.49c-0.57-0.87-1.37-1.32-2.37-1.32
						c-0.99,0-1.82,0.44-2.47,1.33c-0.46,0.63-0.74,1.46-0.85,2.47H320.3z"/>
					<path class="st0" d="M356.11,406.56h2.43l0,2.39c0,1.38-0.04,2.32-0.12,2.8c-0.2,1.22-0.81,2.07-1.82,2.54
						c-0.73,0.35-1.78,0.52-3.11,0.52c-2.1,0-3.54-0.49-4.33-1.45c-0.42-0.52-0.71-1.18-0.86-1.99c-0.82,0.97-1.6,1.69-2.34,2.15
						c-1.48,0.92-3.1,1.38-4.84,1.38c-1.74,0-3.09-0.41-4.04-1.21c-0.47-0.41-0.85-0.97-1.13-1.66c-0.29-0.68-0.43-1.39-0.43-2.14
						c0-1.5,0.51-2.75,1.53-3.75c0.81-0.8,2.02-1.35,3.61-1.64c0.38-0.07,1.32-0.17,2.82-0.31c3.18-0.27,4.76-1.07,4.76-2.41
						c0-0.38-0.11-0.75-0.32-1.12c-0.21-0.36-0.48-0.64-0.82-0.84c-0.57-0.34-1.28-0.51-2.13-0.5c-1.13,0-2.03,0.38-2.7,1.13
						c0.34,0.51,0.52,0.92,0.52,1.26c0,0.61-0.29,1.13-0.85,1.54c-0.51,0.37-1.11,0.56-1.79,0.56c-0.88,0-1.63-0.22-2.25-0.66
						c-0.72-0.5-1.08-1.24-1.08-2.23c0-1.49,0.84-2.63,2.5-3.44c1.35-0.65,3.41-0.97,6.18-0.97c3.09,0,5.41,0.62,6.96,1.86
						c0.85,0.68,1.42,1.47,1.71,2.37c0.22,0.69,0.33,1.73,0.33,3.11l0,4.24c0.02,1.17,0.05,1.84,0.07,2
						c0.11,0.45,0.35,0.68,0.73,0.67c0.44,0,0.69-0.25,0.76-0.74c0.03-0.17,0.05-0.61,0.06-1.31L356.11,406.56z M348.28,405.35
						c-0.51,0.47-1.01,0.84-1.51,1.11c-0.47,0.25-1.41,0.62-2.81,1.1c-0.71,0.25-1.07,0.73-1.08,1.44c0,0.49,0.21,0.87,0.63,1.16
						c0.34,0.24,0.74,0.37,1.19,0.37c1.14,0,2.08-0.43,2.79-1.3c0.54-0.67,0.82-1.58,0.82-2.73L348.28,405.35z"/>
					<path class="st0" d="M386.74,390.51v15.91c0.01,1.33,0.14,2.17,0.38,2.54c0.27,0.4,0.67,0.66,1.21,0.78
						c0.13,0.02,0.52,0.06,1.16,0.12l0.51,0.03l0,4.22h-9.54v-2.16c-0.62,0.77-1.18,1.35-1.69,1.74c-1.13,0.87-2.38,1.3-3.77,1.3
						c-2.1,0-3.9-0.86-5.39-2.58c-1.61-1.83-2.41-4.05-2.41-6.66c0-2.51,0.75-4.68,2.25-6.5c1.47-1.79,3.25-2.7,5.33-2.7
						c2.08,0,3.97,0.97,5.68,2.91v-1.26c-0.01-1.08-0.07-1.79-0.18-2.14c-0.25-0.67-0.76-1.08-1.55-1.21
						c-0.28-0.06-0.64-0.1-1.1-0.12v-4.22L386.74,390.51z M377.29,401.82c-0.97,0-1.77,0.41-2.39,1.24
						c-0.55,0.74-0.83,1.64-0.83,2.71c0,1.24,0.35,2.26,1.06,3.03c0.59,0.64,1.32,0.95,2.22,0.95c1.03,0,1.85-0.42,2.46-1.24
						c0.56-0.77,0.84-1.68,0.85-2.75c0-1.2-0.36-2.2-1.07-2.99C379,402.15,378.24,401.82,377.29,401.82z"/>
				</g>
				<g>
					<path class="st0" d="M26.29,390.51l0,9.2l-3.7,0c-0.13-1.65-0.39-2.79-0.8-3.44c-0.51-0.79-1.59-1.2-3.26-1.21l-6.77,0l0,4.94
						l1.14,0c0.84,0,1.45-0.05,1.84-0.16c1.03-0.27,1.56-1.16,1.59-2.68l3.74,0v10.37l-3.74,0c-0.01-1.25-0.27-2.1-0.79-2.54
						c-0.32-0.25-0.78-0.39-1.39-0.43c-0.39-0.01-0.79-0.03-1.19-0.05h-1.21l0,0.87c0,0.95,0.06,1.68,0.2,2.19
						c0.12,0.45,0.36,0.83,0.7,1.15c0.34,0.32,0.73,0.52,1.16,0.61c0.48,0.1,1.07,0.17,1.76,0.19l0.75,0.02v4.57l-15.95,0l0-4.56
						l0.7-0.01c0.81-0.02,1.42-0.09,1.85-0.22c0.43-0.12,0.8-0.32,1.1-0.61c0.47-0.45,0.74-1.13,0.83-2.04
						c0.03-0.28,0.04-1.04,0.04-2.28l0-4.13c0-1.34-0.03-2.2-0.07-2.61c-0.15-1.16-0.73-1.92-1.74-2.28
						c-0.34-0.14-1.01-0.23-2.02-0.27l-0.7-0.02l0-4.55H26.29z"/>
					<path class="st0" d="M47.85,397.26l0,4.16c0.64-1.24,1.26-2.19,1.87-2.83c1.22-1.3,2.53-1.95,3.93-1.95
						c1.16,0,2.12,0.51,2.87,1.52c0.63,0.85,0.95,1.86,0.95,3.01c0,1.1-0.3,2.01-0.91,2.75c-0.63,0.77-1.37,1.15-2.22,1.16
						c-0.73,0-1.34-0.29-1.85-0.87c-0.46-0.5-0.69-1.28-0.69-2.35c-0.3-0.07-0.52-0.11-0.68-0.11c-0.83,0-1.56,0.47-2.21,1.4
						c-0.64,0.94-0.96,2.19-0.96,3.77c0,0.95,0.17,1.65,0.5,2.09c0.36,0.45,0.97,0.73,1.85,0.83c0.31,0.03,0.73,0.05,1.28,0.05v4.22
						l-13.34,0l0-4.22l0.78-0.03c0.75-0.05,1.28-0.13,1.59-0.24c0.58-0.23,0.93-0.69,1.04-1.37c0.08-0.38,0.11-0.99,0.12-1.83v-1.47
						c-0.01-1.33-0.14-2.18-0.39-2.56c-0.28-0.39-0.68-0.65-1.2-0.76c-0.19-0.04-0.58-0.09-1.16-0.12l-0.78-0.04v-4.22L47.85,397.26
						z"/>
					<path class="st0" d="M92.18,397.26l0,9.16c0.02,1.34,0.15,2.19,0.4,2.54c0.28,0.4,0.68,0.66,1.2,0.78
						c0.2,0.05,0.59,0.08,1.16,0.12l0.79,0.03v4.22l-9.85,0.01l0-2.8c-0.72,0.85-1.33,1.48-1.82,1.89
						c-1.35,1.09-2.99,1.62-4.92,1.62c-2.34,0.01-4.1-0.84-5.28-2.52c-0.51-0.74-0.85-1.69-1-2.87c-0.08-0.62-0.11-1.42-0.11-2.39
						v-2.09c-0.01-1.34-0.14-2.19-0.39-2.56c-0.27-0.39-0.67-0.64-1.21-0.76c-0.13-0.02-0.51-0.06-1.16-0.12l-0.33-0.04l0-4.22
						l9.38,0v7.95c0,1.7,0.26,2.9,0.79,3.59c0.56,0.74,1.38,1.11,2.43,1.11c1.24,0,2.2-0.53,2.88-1.61
						c0.49-0.79,0.73-1.75,0.73-2.85l0-0.5c-0.01-1.34-0.14-2.19-0.39-2.56c-0.27-0.39-0.67-0.64-1.21-0.76
						c-0.14-0.04-0.53-0.07-1.16-0.12l-0.62-0.04l0-4.22L92.18,397.26z"/>
					<path class="st0" d="M117.77,397.26v9.16c0.01,1.32,0.14,2.17,0.39,2.54c0.27,0.41,0.66,0.66,1.19,0.78
						c0.16,0.03,0.54,0.08,1.16,0.13l0.63,0.03l0,4.22l-13.16,0v-4.22l0.8-0.03c0.73-0.05,1.26-0.13,1.58-0.25
						c0.59-0.23,0.95-0.69,1.06-1.37c0.08-0.37,0.11-0.99,0.11-1.83v-1.47c-0.01-1.34-0.14-2.19-0.39-2.56
						c-0.28-0.39-0.68-0.64-1.2-0.76c-0.22-0.05-0.61-0.09-1.16-0.12l-0.8-0.04v-4.22H117.77z M114.51,389.17
						c0.85,0,1.6,0.35,2.23,1.04c0.61,0.65,0.92,1.46,0.92,2.42c0,1-0.32,1.83-0.97,2.48c-0.56,0.57-1.27,0.85-2.14,0.86
						c-0.92,0-1.68-0.32-2.28-0.96c-0.6-0.63-0.9-1.45-0.9-2.46c0-1.05,0.37-1.92,1.11-2.61
						C113.05,389.43,113.73,389.17,114.51,389.17z"/>
					<path class="st0" d="M143.6,391.71v5.55h4.03v4.22l-4.03,0v7.24c0,0.83,0.03,1.36,0.1,1.59c0.12,0.38,0.36,0.57,0.7,0.57
						c0.52,0,0.77-0.48,0.77-1.45l-0.01-0.64v-2.26l2.47,0v3.39c0,1.2-0.16,2.11-0.5,2.73c-0.44,0.81-1.17,1.37-2.18,1.71
						c-0.77,0.26-1.58,0.38-2.41,0.38c-1.86,0-3.25-0.59-4.2-1.76c-0.44-0.55-0.73-1.32-0.87-2.3c-0.1-0.62-0.14-1.45-0.14-2.47
						l0-6.73h-2.94v-4.22c3.12-0.12,4.67-1.97,4.66-5.55H143.6z"/>
				</g>
			</g>
		</g>
		<g>
			<g>
				<g>
					<path class="st0" d="M44.3,311.78h7.28l0,16.09l-7.27,0c-0.84-2.01-1.9-3.59-3.21-4.74c-2.21-1.99-5.31-3.52-9.33-4.62
						c-2.78-0.78-5.34-1.16-7.67-1.16c-2.71,0-5.04,0.47-6.97,1.43c-0.93,0.46-1.66,1.07-2.2,1.85c-0.54,0.77-0.81,1.58-0.81,2.43
						c0,1.87,1.03,3.12,3.1,3.75c0.26,0.07,1.2,0.26,2.8,0.55c1.6,0.29,2.65,0.46,3.16,0.51l10.38,1.17
						c3.91,0.44,6.71,0.94,8.43,1.49c3.76,1.21,6.55,3.26,8.33,6.15c1.68,2.75,2.52,5.93,2.52,9.58c0,5.43-1.85,9.63-5.55,12.6
						c-3.75,2.99-8.74,4.48-14.98,4.48c-5.29,0-10.31-1.08-15.08-3.25c-1.98-0.89-3.11-1.41-3.4-1.56
						c-0.99-0.41-1.99-0.62-3.01-0.62c-2.16,0-3.32,1.18-3.47,3.56H0.39l0-17.8l7.44,0c0.51,1.86,1.24,3.41,2.18,4.62
						c2.07,2.62,5.2,4.63,9.37,6.04c2.68,0.9,5.62,1.35,8.82,1.35c2.91,0,5.45-0.51,7.61-1.53c2.31-1.09,3.47-2.55,3.47-4.37
						c0-1.65-1.06-2.83-3.17-3.53c-1.05-0.34-3.1-0.73-6.11-1.17l-9.95-1.41c-4.83-0.71-8.1-1.37-9.82-2
						c-3.75-1.44-6.46-3.64-8.13-6.59C0.69,332.59,0,329.87,0,326.96c0-5.23,2.08-9.41,6.25-12.61c3.88-2.93,8.94-4.39,15.18-4.4
						c4.91,0,10.59,1.21,17.02,3.64c1.7,0.63,2.87,0.94,3.51,0.94C43.5,314.55,44.28,313.63,44.3,311.78z"/>
				</g>
				<g>
					<path class="st0" d="M110.97,311.36c0,0,18.97,35.66,19.57,36.6c1.07,1.66,2.48,2.87,4.23,3.63c0.74,0.29,1.59,0.49,2.54,0.55
						v9.79l-29.35,0v-9.79c2.53-0.02,4.21-0.24,5.06-0.63c1.05-0.47,1.57-1.27,1.57-2.4c0.01-0.84-0.31-2-0.94-3.44l-23.07-0.01
						c-0.66,1.16-0.99,2.15-0.99,2.96c0,1.58,0.76,2.61,2.3,3.08c0.51,0.17,1.97,0.33,4.37,0.44l0,9.79H72.74l0-9.79
						c2.45-0.14,4.35-0.72,5.69-1.74c1.21-0.89,2.72-3.32,4.53-7.3l16.81-31.74H110.97z M109.93,337.45l-8.05-15.13l-7.75,15.13
						L109.93,337.45z"/>
				</g>
				<g>
					<path class="st0" d="M215.66,361.94l-7.3,0l-31.84-31.69v11.25c0,2.8,0.04,4.64,0.14,5.48c0.3,2.44,1.42,4.06,3.37,4.83
						c0.65,0.3,1.96,0.49,3.93,0.54l1.39,0l0,9.59l-25.57,0v-9.59h1.39c1.29,0.01,2.42-0.13,3.43-0.39c0.85-0.2,1.61-0.63,2.27-1.3
						c0.66-0.68,1.11-1.48,1.36-2.39c0.23-0.93,0.36-2.02,0.38-3.27c0-0.53,0-1.69,0-3.48l0-9.07c0-2.99-0.05-4.91-0.14-5.82
						c-0.3-2.56-1.42-4.27-3.37-5.11c-0.7-0.34-2.03-0.54-3.95-0.58h-1.37l0-9.54l20.11,0l27.75,27.8v-6.82
						c0-2.95-0.04-4.87-0.14-5.77c-0.29-2.56-1.42-4.25-3.37-5.08c-0.72-0.35-2.04-0.54-3.96-0.59l-1.47,0l0-9.54l25.65-0.01l0,9.54
						l-1.25,0c-1.28,0.02-2.43,0.16-3.43,0.4c-0.86,0.19-1.62,0.63-2.27,1.32c-0.67,0.67-1.12,1.46-1.36,2.39
						c-0.24,0.92-0.37,2.01-0.39,3.26c0,0.2,0,1.38,0,3.52V361.94z"/>
				</g>
				<g>
					<path class="st0" d="M292.26,342.5l7.76,0c-0.75,3.22-1.75,5.93-3.01,8.12c-1.26,2.22-2.94,4.26-5.05,6.17
						c-4.96,4.36-11.81,6.54-20.54,6.55c-8.45-0.01-15.39-2.19-20.83-6.55c-6.18-4.94-9.27-11.69-9.27-20.22
						c0-5.93,1.55-11.15,4.67-15.64c2.76-3.97,6.77-6.93,12.03-8.89c3.75-1.38,7.6-2.08,11.53-2.08c4.78,0.01,9.69,1.03,14.73,3.08
						c2.11,0.85,3.6,1.28,4.46,1.27c1.56,0,2.47-0.89,2.74-2.67h8.53v19.56h-8.53c-0.51-1.98-1.17-3.57-1.97-4.79
						c-1.64-2.53-3.76-4.37-6.36-5.52c-2.56-1.15-5.2-1.72-7.94-1.72c-4.38,0-8.16,1.54-11.33,4.63c-3.36,3.3-5.04,7.34-5.04,12.11
						c0,4.88,1.62,9.07,4.84,12.58c3.33,3.63,7.53,5.44,12.6,5.44c4.56,0.01,8.39-1.52,11.5-4.57
						C289.48,347.75,290.97,345.45,292.26,342.5z"/>
				</g>
				<g>
					<path class="st0" d="M347.81,341.66l0,0.86c0,2.42,0.14,4.22,0.42,5.4c0.49,1.98,1.7,3.24,3.63,3.79
						c0.66,0.17,1.36,0.28,2.11,0.32c0.71,0.03,1.16,0.06,1.35,0.08l0.25,0.04l0,9.77l-30.16,0.01l0-9.78l1.49-0.04
						c1.58-0.05,2.79-0.2,3.64-0.46c0.84-0.27,1.56-0.71,2.16-1.32c0.91-1,1.46-2.44,1.63-4.37c0.06-0.62,0.09-2.24,0.09-4.89
						l0.01-8.85c0-2.87-0.05-4.74-0.14-5.6c-0.3-2.47-1.44-4.1-3.41-4.89c-0.64-0.32-1.97-0.52-3.97-0.6l-1.5-0.04l0-9.74l30.16,0
						v9.75l-0.25,0.04c-0.19,0.05-0.64,0.1-1.35,0.12c-2.63,0.12-4.43,1.12-5.38,3c-0.55,1.29-0.81,3.46-0.79,6.52l0,0.86l19.8,0
						l0-0.86c0-2.44-0.14-4.25-0.4-5.44c-0.49-1.96-1.72-3.2-3.66-3.75c-0.85-0.14-2-0.29-3.47-0.45l-0.25-0.04v-9.74l30.16-0.01
						l0,9.75l-1.5,0.03c-1.56,0.05-2.76,0.22-3.62,0.49c-0.85,0.27-1.58,0.71-2.18,1.33c-0.92,0.98-1.47,2.41-1.63,4.34
						c-0.06,0.62-0.09,2.26-0.09,4.94v8.85c-0.01,2.86,0.04,4.72,0.14,5.55c0.31,2.5,1.44,4.14,3.41,4.92
						c0.62,0.3,1.94,0.48,3.97,0.56l1.49,0.05v9.77l-30.16,0v-9.77l0.26-0.04c0.21-0.02,0.66-0.05,1.35-0.08
						c2.61-0.12,4.4-1.13,5.38-3.04c0.55-1.26,0.81-3.42,0.79-6.48l0-0.85L347.81,341.66z"/>
				</g>
			</g>
		</g>
	</g>
	<g>
		<path class="st0" d="M390,258.3L240.97,0.01L149.44,0L0.39,258.31l97.49-0.01l0,0l140.11,0L390,258.3z M155.4,10.33l73.64,0.01
			L91.92,247.96l-73.63,0.01L155.4,10.33z M170.92,131.76l67.07-116.25l67.05,116.23l67.08,116.23l-134.13-0.01l-134.15,0.01
			L170.92,131.76z"/>
		<g>
			<g>
				<path class="st0" d="M188.14,39.35l3.86,2.23l-4.93,8.54l-3.86-2.23c0.17-1.33,0.09-2.49-0.25-3.5
					c-0.56-1.73-1.74-3.5-3.53-5.31c-1.24-1.27-2.48-2.26-3.72-2.97c-1.44-0.83-2.82-1.29-4.14-1.38c-0.63-0.04-1.21,0.06-1.73,0.31
					c-0.53,0.24-0.91,0.59-1.18,1.04c-0.58,0.99-0.41,1.97,0.5,2.94c0.12,0.12,0.56,0.51,1.32,1.15c0.76,0.64,1.26,1.06,1.52,1.24
					l5.16,3.8c1.94,1.43,3.28,2.55,4.02,3.38c1.63,1.79,2.48,3.74,2.54,5.82c0.04,1.97-0.48,3.92-1.6,5.86
					c-1.66,2.89-3.94,4.54-6.81,4.98c-2.91,0.44-6.01-0.31-9.32-2.22c-2.81-1.62-5.14-3.74-7.01-6.35c-0.78-1.08-1.22-1.7-1.32-1.87
					c-0.4-0.52-0.87-0.94-1.41-1.25c-1.14-0.66-2.12-0.39-2.93,0.83l-3.69-2.13l5.45-9.45l3.95,2.29c-0.3,1.14-0.39,2.19-0.25,3.12
					c0.29,2.03,1.34,4.05,3.12,6.08c1.15,1.3,2.57,2.44,4.27,3.42c1.54,0.89,3.05,1.4,4.51,1.52c1.56,0.13,2.62-0.29,3.18-1.25
					c0.51-0.88,0.3-1.83-0.6-2.85c-0.46-0.5-1.42-1.34-2.89-2.49l-4.85-3.8c-2.35-1.86-3.88-3.21-4.6-4.08
					c-1.55-1.91-2.31-3.91-2.3-5.99c0.03-1.75,0.49-3.4,1.38-4.95c1.61-2.77,3.99-4.36,7.18-4.78c2.96-0.37,6.09,0.41,9.41,2.32
					c2.61,1.5,5.25,3.89,7.92,7.15c0.71,0.85,1.23,1.38,1.57,1.58C186.86,40.58,187.56,40.33,188.14,39.35z"/>
			</g>
			<g>
				<path class="st0" d="M160.85,72c0,0-0.85,24.75-0.82,25.43c0.06,1.21,0.43,2.28,1.12,3.22c0.31,0.38,0.7,0.74,1.18,1.07l-3,5.19
					l-15.58-8.99l3-5.2c1.35,0.76,2.31,1.16,2.88,1.21c0.7,0.08,1.22-0.19,1.57-0.79c0.26-0.45,0.45-1.16,0.56-2.11l-12.24-7.08
					c-0.71,0.41-1.19,0.83-1.43,1.27c-0.49,0.84-0.39,1.62,0.28,2.34c0.22,0.25,0.95,0.78,2.18,1.57l-2.99,5.2l-12.49-7.21l3-5.19
					c1.34,0.68,2.53,0.95,3.56,0.82c0.91-0.1,2.46-0.93,4.64-2.48l18.65-11.7L160.85,72z M152.3,85.53l0.36-10.5l-8.75,5.65
					L152.3,85.53z"/>
			</g>
			<g>
				<path class="st0" d="M132.36,143.03l-3.87-2.24l-7.19-26.58l-3.45,5.97c-0.86,1.49-1.4,2.47-1.61,2.95
					c-0.59,1.39-0.49,2.59,0.31,3.6c0.25,0.36,0.89,0.86,1.92,1.49l0.74,0.43l-2.94,5.09l-13.57-7.84l2.94-5.09l0.74,0.43
					c0.68,0.4,1.32,0.67,1.94,0.84c0.51,0.16,1.05,0.16,1.6,0c0.56-0.16,1.04-0.44,1.45-0.85c0.41-0.42,0.81-0.96,1.21-1.62
					c0.16-0.28,0.52-0.9,1.07-1.85l2.78-4.81c0.91-1.58,1.48-2.62,1.71-3.13c0.63-1.45,0.55-2.7-0.22-3.75
					c-0.27-0.4-0.91-0.91-1.92-1.52l-0.72-0.42l2.92-5.06l10.67,6.17l6.22,23.26l2.09-3.62c0.9-1.57,1.47-2.6,1.69-3.11
					c0.63-1.45,0.55-2.69-0.23-3.73c-0.28-0.41-0.92-0.91-1.92-1.53l-0.78-0.45l2.92-5.06l13.62,7.86l-2.93,5.06l-0.66-0.38
					c-0.69-0.38-1.34-0.66-1.94-0.84c-0.51-0.16-1.05-0.16-1.61,0c-0.56,0.15-1.04,0.43-1.45,0.85c-0.41,0.41-0.81,0.95-1.2,1.61
					c-0.06,0.11-0.42,0.73-1.08,1.87L132.36,143.03z"/>
			</g>
			<g>
				<path class="st0" d="M114.44,171.62l4.12,2.38c-1.39,1.48-2.75,2.61-4.09,3.39c-1.35,0.79-2.87,1.36-4.57,1.73
					c-3.97,0.79-8.27-0.15-12.91-2.83c-4.48-2.6-7.5-5.88-9.05-9.86c-1.77-4.52-1.34-9.05,1.27-13.58c1.82-3.15,4.25-5.44,7.27-6.87
					c2.68-1.26,5.72-1.61,9.11-1.03c2.42,0.41,4.67,1.23,6.76,2.43c2.54,1.47,4.83,3.52,6.88,6.15c0.86,1.1,1.52,1.78,1.98,2.04
					c0.83,0.48,1.59,0.28,2.27-0.58l4.53,2.62L122.02,168l-4.53-2.61c0.33-1.21,0.47-2.26,0.42-3.15c-0.1-1.85-0.66-3.48-1.69-4.88
					c-1.01-1.39-2.23-2.5-3.69-3.35c-2.32-1.34-4.8-1.68-7.43-1.01c-2.79,0.72-4.92,2.35-6.39,4.88c-1.49,2.59-1.92,5.31-1.29,8.16
					c0.66,2.95,2.33,5.2,5.02,6.75c2.42,1.4,4.92,1.77,7.51,1.1C111.36,173.55,112.85,172.79,114.44,171.62z"/>
			</g>
			<g>
				<path class="st0" d="M75.18,201.04l-0.26,0.46c-0.74,1.28-1.22,2.28-1.43,3c-0.35,1.2-0.09,2.24,0.77,3.12
					c0.3,0.29,0.64,0.56,1.02,0.82c0.38,0.23,0.6,0.39,0.69,0.46l0.12,0.09l-2.99,5.19l-16.01-9.25l2.99-5.19l0.81,0.44
					c0.85,0.46,1.54,0.75,2.06,0.87c0.53,0.12,1.05,0.11,1.56-0.04c0.79-0.25,1.52-0.85,2.21-1.82c0.22-0.31,0.73-1.16,1.54-2.57
					l2.71-4.7c0.88-1.52,1.42-2.53,1.64-3.01c0.6-1.4,0.49-2.62-0.31-3.64c-0.24-0.37-0.89-0.88-1.93-1.53l-0.78-0.48l2.99-5.18
					l16.01,9.25l-2.99,5.18l-0.14-0.06c-0.12-0.03-0.37-0.15-0.75-0.35c-1.43-0.74-2.69-0.76-3.78-0.06
					c-0.68,0.52-1.49,1.59-2.42,3.21l-0.26,0.46l10.51,6.07l0.27-0.46c0.74-1.3,1.23-2.3,1.45-3.01c0.34-1.19,0.07-2.22-0.79-3.11
					c-0.41-0.34-0.98-0.77-1.71-1.3l-0.12-0.09l2.98-5.17l16.02,9.25l-2.99,5.18l-0.8-0.44c-0.84-0.45-1.54-0.74-2.07-0.85
					c-0.53-0.12-1.05-0.11-1.56,0.03c-0.79,0.23-1.52,0.83-2.2,1.8c-0.23,0.32-0.74,1.18-1.56,2.59l-2.71,4.7
					c-0.88,1.52-1.42,2.52-1.63,2.99c-0.61,1.42-0.51,2.64,0.3,3.66c0.24,0.35,0.88,0.85,1.93,1.51l0.78,0.48l-3,5.19l-16.01-9.25
					l2.99-5.18l0.15,0.06c0.11,0.05,0.36,0.17,0.74,0.37c1.42,0.74,2.68,0.75,3.78,0.04c0.68-0.5,1.48-1.56,2.41-3.2l0.27-0.45
					L75.18,201.04z"/>
			</g>
		</g>
	</g>
</g>
</svg>
