<?xml version="1.0" encoding="utf-8"?>
<!-- Generator: Adobe Illustrator 24.1.1, SVG Export Plug-In . SVG Version: 6.00 Build 0)  -->
<svg version="1.1" id="レイヤー_1" xmlns="http://www.w3.org/2000/svg" xmlns:xlink="http://www.w3.org/1999/xlink" x="0px"
	 y="0px" viewBox="0 0 629 603" style="enable-background:new 0 0 629 603;" xml:space="preserve">
<style type="text/css">
	.st0{clip-path:url(#SVGID_2_);}
	.st1{fill:none;stroke:#000000;stroke-width:5;stroke-miterlimit:10;}
	.st2{fill:#FFFFFF;stroke:#000000;stroke-width:1.0757;stroke-miterlimit:10;}
	.st3{fill:none;}
	.st4{fill:none;stroke:#000000;stroke-width:7.5301;stroke-miterlimit:10;}
	.st5{fill:none;stroke:#FFFFFF;stroke-width:5.3787;stroke-miterlimit:10;}
	.st6{fill:none;stroke:#FFFFFF;stroke-width:5.3787;stroke-miterlimit:10;stroke-dasharray:10.8216,10.8216;}
	.st7{fill:none;stroke:#000000;stroke-width:5.3787;stroke-miterlimit:10;}
	.st8{stroke:#FFFFFF;stroke-width:1.1094;stroke-miterlimit:10;}
	.st9{fill:#FFFFFF;}
	.st10{fill:#231815;}
	.st11{fill:#FFFFFF;stroke:#000000;stroke-miterlimit:10;}
	.st12{fill:none;stroke:#000000;stroke-width:4;stroke-miterlimit:10;}
	.st13{stroke:#FFFFFF;stroke-width:1.1282;stroke-miterlimit:10;}
	.st14{stroke:#000000;stroke-miterlimit:10;}
	.st15{fill:none;stroke:#000000;stroke-width:0.9415;stroke-miterlimit:10;}
</style>
<g>
	<defs>
		<rect id="SVGID_1_" width="629" height="603"/>
	</defs>
	<clipPath id="SVGID_2_">
		<use xlink:href="#SVGID_1_"  style="overflow:visible;"/>
	</clipPath>
	<g class="st0">
		<line class="st1" x1="72" y1="340.5" x2="1485" y2="340.5"/>
		<line class="st2" x1="410.82" y1="112.97" x2="395.56" y2="93.11"/>
		<path class="st3" d="M537.38,70.1"/>
		<g>
			<line class="st4" x1="99.56" y1="649.92" x2="1068.79" y2="-3.05"/>
			<g>
				<line class="st5" x1="99.56" y1="649.92" x2="104.02" y2="646.91"/>
				<line class="st6" x1="113" y1="640.86" x2="1059.85" y2="2.98"/>
				<line class="st5" x1="1064.33" y1="-0.05" x2="1068.79" y2="-3.05"/>
			</g>
		</g>
		<line class="st1" x1="71.5" y1="35" x2="71.5" y2="676"/>
		<line class="st1" x1="-180" y1="120.5" x2="1482" y2="120.5"/>
		
			<rect x="207.68" y="526.93" transform="matrix(0.8321 -0.5547 0.5547 0.8321 -255.5312 235.6781)" width="107.54" height="25.82"/>
		<path class="st7" d="M72.67,522.98c0,0,109.72,3.23,172.12-20.44c56.3-21.36,174.27-84.98,174.27-206.18
			c0-103.99-0.72-262.48-0.72-262.48"/>
		<g>
			<path d="M455.07,138.22c-0.67,0.5-1.51,0.99-2.23,1.36c0.76,0.54,1.71,0.93,2.83,1.14c-0.23,0.2-0.51,0.62-0.63,0.89
				c-2.43-0.56-3.97-1.87-4.87-3.94h-1.4v2.57l2.59-0.4l0.05,0.88c-1.69,0.29-3.5,0.58-4.78,0.79l-0.24-0.91
				c0.39-0.05,0.85-0.12,1.34-0.19v-2.73h-1.84v-0.89h1.85v-4.67h6.65v0.84h-5.64v0.74h5.32v0.8h-5.32v0.74h5.32v0.8h-5.32v0.75
				h6.71v0.89h-1.22L455.07,138.22z M451.19,137.67c0.27,0.5,0.6,0.96,1,1.36c0.71-0.4,1.53-0.92,2.05-1.36H451.19z"/>
			<path d="M459.66,139.87c0.69-0.09,1.4-0.17,2.1-0.27l0.02,0.88c-1.84,0.28-3.8,0.54-5.15,0.73l-0.11-0.98
				c0.59-0.06,1.34-0.15,2.17-0.26v-1.39h-1.84v-0.9h1.84v-1.07h-1.84v-4.39h4.67v4.39h-1.86v1.07h1.86v0.9h-1.86V139.87z
				 M457.68,134.04h1.08v-1h-1.08V134.04z M457.68,135.82h1.08v-1.01h-1.08V135.82z M460.66,133.04h-1.06v1h1.06V133.04z
				 M460.66,134.81h-1.06v1.01h1.06V134.81z M466.49,135.82c-0.24,0.91-0.54,1.96-0.84,2.61l-0.81-0.21c0.16-0.4,0.33-1,0.48-1.59
				h-1.01v3.81c0,0.52-0.1,0.81-0.46,0.96c-0.37,0.17-0.93,0.18-1.72,0.18c-0.03-0.28-0.16-0.71-0.3-0.99
				c0.57,0.02,1.12,0.02,1.28,0.01c0.16,0,0.22-0.04,0.22-0.18v-3.79h-1.59v-0.95h2.56c-0.59-0.48-1.4-1.02-2.12-1.39l0.62-0.61
				c0.32,0.16,0.67,0.34,1,0.55c0.34-0.32,0.69-0.72,0.97-1.1h-2.9v-0.89h3.59l0.2-0.05l0.65,0.45c-0.45,0.71-1.12,1.48-1.79,2.07
				c0.35,0.25,0.67,0.5,0.9,0.72l-0.24,0.26h0.46l0.16-0.03L466.49,135.82z"/>
			<path d="M474.27,133.85c0.3,0,0.6-0.03,0.81-0.11l0.88,0.54c-0.11,0.17-0.23,0.44-0.3,0.66c-0.29,1.03-0.93,2.47-1.89,3.66
				c-0.99,1.22-2.29,2.21-4.3,2.97l-1-0.89c2.08-0.61,3.36-1.57,4.31-2.68c0.8-0.92,1.44-2.27,1.64-3.17h-3.37
				c-0.68,0.93-1.6,1.87-2.72,2.63l-0.95-0.7c1.87-1.13,2.87-2.61,3.38-3.56c0.13-0.23,0.31-0.66,0.4-0.97l1.25,0.41
				c-0.21,0.32-0.44,0.73-0.56,0.95c-0.05,0.1-0.1,0.18-0.16,0.28H474.27z M475.13,132.04c0.27,0.39,0.66,1.05,0.87,1.47l-0.71,0.3
				c-0.22-0.43-0.56-1.08-0.85-1.48L475.13,132.04z M476.34,131.58c0.29,0.4,0.7,1.08,0.89,1.46l-0.7,0.31
				c-0.23-0.46-0.58-1.08-0.88-1.48L476.34,131.58z"/>
			<path d="M487.15,135.58c-0.05,0.12-0.14,0.28-0.16,0.37c-0.31,1.05-0.79,2.14-1.58,3.02c-1.11,1.23-2.47,1.9-3.85,2.29
				l-0.84-0.97c1.56-0.32,2.88-1.02,3.77-1.94c0.61-0.63,1-1.44,1.19-2.15h-5.48c-0.26,0-0.73,0.01-1.14,0.04v-1.12
				c0.42,0.04,0.83,0.08,1.14,0.08h5.51c0.29,0,0.55-0.04,0.69-0.1L487.15,135.58z M480.04,132.62c0.29,0.03,0.68,0.05,1.02,0.05
				h4.2c0.34,0,0.79-0.02,1.05-0.05v1.11c-0.27-0.02-0.7-0.03-1.06-0.03h-4.18c-0.33,0-0.72,0.01-1.02,0.03V132.62z"/>
			<path d="M493.97,138.41c1.73-1.07,3.08-2.68,3.73-4.06l0.66,1.17c-0.77,1.39-2.1,2.86-3.78,3.89c-1.09,0.67-2.45,1.3-4.12,1.6
				l-0.72-1.11C491.54,139.65,492.94,139.05,493.97,138.41z M493.61,134.97l-0.85,0.87c-0.56-0.57-1.89-1.73-2.69-2.28l0.79-0.84
				C491.62,133.23,493,134.34,493.61,134.97z"/>
			<path d="M503.43,135.36c1.42,0.42,3.49,1.19,4.55,1.72l-0.47,1.16c-1.14-0.6-2.89-1.28-4.08-1.67l0.01,3.32
				c0,0.33,0.03,0.98,0.08,1.38h-1.31c0.05-0.38,0.09-0.97,0.09-1.38v-6.22c0-0.34-0.03-0.85-0.1-1.21h1.32
				c-0.03,0.36-0.09,0.82-0.09,1.21V135.36z M506.5,134.84c-0.28-0.61-0.58-1.13-0.95-1.65l0.72-0.31c0.29,0.42,0.74,1.12,0.98,1.62
				L506.5,134.84z M507.9,134.27c-0.31-0.61-0.61-1.11-0.99-1.61l0.72-0.33c0.29,0.4,0.75,1.1,1,1.59L507.9,134.27z"/>
			<path d="M513.91,136.27l-0.62,0.96c-0.57-0.41-1.71-1.14-2.4-1.51l0.61-0.93C512.17,135.16,513.4,135.91,513.91,136.27z
				 M514.99,138.8c1.8-1.02,3.25-2.46,4.12-3.99l0.65,1.14c-0.96,1.46-2.45,2.84-4.2,3.85c-1.09,0.63-2.59,1.15-3.57,1.33
				l-0.63-1.11C512.55,139.82,513.86,139.42,514.99,138.8z M515.52,133.89l-0.63,0.92c-0.55-0.4-1.7-1.16-2.37-1.54l0.61-0.92
				C513.8,132.73,515.01,133.53,515.52,133.89z"/>
			<path d="M526.59,139.99c0,0.4,0.03,0.94,0.05,1.27h-1.23c0.04-0.31,0.08-0.87,0.08-1.27c0-0.58,0-1.44,0.01-2.13
				c-1,0.56-2.17,1.02-3.5,1.42l-0.66-1c2.07-0.47,3.42-1.19,4.38-1.82c0.9-0.58,1.68-1.32,2.02-1.81h-4.22
				c-0.39,0-1.02,0.02-1.35,0.04v-1.12c0.37,0.04,0.97,0.06,1.33,0.06h2v-0.63c0-0.32-0.02-0.72-0.06-0.97h1.23
				c-0.03,0.25-0.06,0.66-0.06,0.97v0.63h1.57c0.28,0,0.56-0.02,0.76-0.09l0.71,0.68c-0.23,0.24-0.51,0.53-0.7,0.75
				c-0.55,0.63-1.42,1.51-2.37,2.18V139.99z M528.13,136.93c1,0.54,1.57,0.86,2.59,1.55l-0.71,0.94c-0.94-0.71-1.61-1.15-2.58-1.68
				L528.13,136.93z"/>
			<path d="M541.48,133.94c-0.13,0.14-0.24,0.27-0.31,0.38c-0.77,1.27-2.15,3.01-3.8,4.3c0.63,0.63,1.33,1.39,1.76,1.9l-0.99,0.8
				c-0.43-0.58-1.3-1.55-1.99-2.26c-0.65-0.63-1.82-1.67-2.42-2.09l0.88-0.72c0.41,0.3,1.23,0.96,1.94,1.59
				c1.42-1.09,2.55-2.53,3.08-3.45h-6.05c-0.43,0-0.94,0.04-1.16,0.06v-1.21c0.29,0.04,0.8,0.09,1.16,0.09h6.22
				c0.34,0,0.65-0.03,0.83-0.1L541.48,133.94z"/>
			<path d="M550.69,133.72c-0.08,0.1-0.24,0.38-0.31,0.55c-0.38,0.89-1.02,2.11-1.76,3.08c1.11,0.95,2.41,2.33,3.08,3.15l-0.96,0.83
				c-0.7-0.96-1.79-2.15-2.84-3.13c-1.15,1.23-2.59,2.38-4.14,3.09l-0.87-0.92c1.74-0.66,3.36-1.96,4.42-3.14
				c0.73-0.82,1.45-2,1.71-2.84h-3.95c-0.42,0-1,0.05-1.17,0.06v-1.22c0.22,0.03,0.84,0.08,1.17,0.08h3.99
				c0.4,0,0.75-0.05,0.94-0.12l0.42,0.32c-0.22-0.43-0.52-0.96-0.77-1.33l0.7-0.29c0.27,0.41,0.67,1.08,0.86,1.47l-0.61,0.27
				L550.69,133.72z M551.61,131.52c0.28,0.4,0.69,1.08,0.88,1.46l-0.7,0.31c-0.23-0.46-0.58-1.08-0.87-1.48L551.61,131.52z"/>
		</g>
		<g>
			<path d="M94.9,100.62c3.21,0,5.81,2.59,5.81,5.81c0,3.21-2.59,5.81-5.81,5.81s-5.81-2.59-5.81-5.81
				C89.09,103.19,91.71,100.62,94.9,100.62z"/>
		</g>
		<g>
			<path d="M87.06,84.54c-0.41,0.68-0.86,1.28-1.31,1.8c-0.08-0.17-0.26-0.51-0.38-0.68c1.03-1.12,2.07-2.98,2.69-4.84l0.86,0.29
				c-0.04,0.08-0.12,0.11-0.25,0.1c-0.28,0.75-0.61,1.51-0.99,2.23l0.29,0.08c-0.02,0.06-0.08,0.12-0.22,0.13v7.13h-0.7V84.54z
				 M88.5,82.77h7.1v0.61h-7.1V82.77z M89.29,90.73v-3.45h5.56v3.42h-0.73v-0.5h-4.13v0.54H89.29z M94.76,84.28v0.6H89.4v-0.6H94.76
				z M89.4,86.39v-0.6h5.35v0.6H89.4z M94.57,81.27v0.6h-5.05v-0.6H94.57z M94.12,87.88h-4.13v1.71h4.13V87.88z"/>
			<path d="M96.24,86.68c0.57-0.79,0.89-2.07,1.06-3.11l0.62,0.17c-0.19,1.05-0.51,2.41-1.06,3.22L96.24,86.68z M98.5,81.08
				l0.93,0.05c-0.01,0.08-0.06,0.13-0.22,0.15v3.12c0,2.22-0.2,4.56-2.11,6.35c-0.11-0.17-0.37-0.43-0.53-0.54
				c1.74-1.65,1.93-3.8,1.93-5.81V81.08z M100.47,86.77c-0.1-0.71-0.44-1.87-0.83-2.75l0.61-0.22c0.39,0.88,0.76,2.01,0.87,2.7
				L100.47,86.77z M101.63,81.3l0.93,0.06c-0.01,0.08-0.08,0.13-0.21,0.15v8.59h-0.71V81.3z M103.96,86.71
				c-0.19-0.71-0.71-1.86-1.22-2.72l0.57-0.27c0.52,0.85,1.06,1.97,1.26,2.67L103.96,86.71z M104.9,81.07l0.94,0.05
				c-0.01,0.09-0.08,0.13-0.22,0.15v9.44h-0.72V81.07z"/>
			<path d="M116.92,84.64h-4.21c0.7,2.57,2.09,4.55,4.38,5.4c-0.18,0.16-0.42,0.46-0.54,0.68c-2.25-0.92-3.61-2.83-4.41-5.42
				c-0.5,2.13-1.67,4.24-4.44,5.43c-0.11-0.19-0.33-0.45-0.52-0.61c2.84-1.15,3.91-3.3,4.31-5.48h-4.15V83.9h4.27
				c0.14-1.12,0.13-2.22,0.14-3.15l1.01,0.05c-0.01,0.1-0.1,0.15-0.24,0.18c-0.01,0.85-0.02,1.86-0.15,2.92h4.54V84.64z"/>
			<path d="M127.7,87.09v0.68h-4.46v2.09c0,0.9-0.52,0.91-2.51,0.91c-0.05-0.2-0.19-0.5-0.31-0.71c0.55,0.02,1.03,0.03,1.38,0.03
				c0.62,0,0.7,0,0.7-0.24v-2.09h-4.41v-0.68h4.41v-0.94l0.51,0.03c0.55-0.28,1.12-0.66,1.56-1.02h-4.68v-0.65h5.44l0.13-0.04
				l0.56,0.36c-0.03,0.05-0.1,0.09-0.16,0.1c-0.63,0.6-1.66,1.3-2.61,1.77v0.39H127.7z M119.04,83.22v1.73h-0.69v-2.39h1.68
				c-0.2-0.42-0.6-0.99-0.96-1.41l0.6-0.29c0.43,0.47,0.89,1.11,1.09,1.54l-0.31,0.16h2.28c-0.16-0.48-0.52-1.15-0.85-1.65
				l0.62-0.24c0.39,0.54,0.77,1.26,0.91,1.72l-0.38,0.16h1.88c0.42-0.49,0.95-1.25,1.24-1.76c0.68,0.25,0.76,0.3,0.85,0.35
				c-0.03,0.07-0.12,0.1-0.23,0.09c-0.27,0.39-0.66,0.89-1.03,1.32h1.75v2.39h-0.71v-1.73H119.04z"/>
			<path d="M134.07,87.85l-2.39,0.36v1.74c0,0.72-0.3,0.81-1.87,0.79c-0.03-0.18-0.14-0.44-0.23-0.62c0.29,0,0.55,0.01,0.76,0.01
				c0.62,0,0.65,0,0.65-0.17V88.3c-0.75,0.12-1.44,0.21-1.98,0.29c-0.01,0.09-0.08,0.14-0.14,0.15l-0.27-0.8
				c0.63-0.08,1.47-0.17,2.39-0.29v-1.04l0.39,0.02c0.32-0.25,0.67-0.55,0.94-0.85h-1.42c-0.57,0.54-1.19,1.02-1.85,1.42
				c-0.11-0.14-0.33-0.39-0.48-0.52c0.45-0.26,0.88-0.56,1.3-0.9h-0.3v-0.59h0.97c0.27-0.26,0.54-0.54,0.79-0.83h-2.69v-0.65h1.95
				v-1.16h-1.45v-0.63h1.45v-1.19l0.89,0.06c-0.01,0.06-0.08,0.12-0.21,0.14v0.99h1.42v0.56c0.28-0.48,0.54-0.98,0.75-1.5l0.84,0.29
				c-0.03,0.09-0.15,0.11-0.26,0.1c-0.37,0.83-0.82,1.61-1.32,2.34h1.29v0.65h-1.78c-0.23,0.29-0.46,0.56-0.71,0.83h1.41l0.11-0.04
				l0.51,0.33c-0.02,0.04-0.1,0.08-0.15,0.09c-0.41,0.48-1.08,1.09-1.68,1.5v0.51c0.77-0.1,1.58-0.21,2.38-0.31L134.07,87.85z
				 M131.25,83.72h0.59c0.28-0.37,0.54-0.76,0.79-1.16h-1.38V83.72z M138.63,83.45h-0.72c-0.26,1.77-0.68,3.25-1.36,4.44
				c0.55,0.98,1.26,1.75,2.16,2.23c-0.17,0.15-0.4,0.42-0.52,0.62c-0.86-0.5-1.54-1.25-2.09-2.16c-0.66,0.9-1.51,1.63-2.63,2.16
				c-0.08-0.17-0.27-0.47-0.4-0.61c1.15-0.53,2.01-1.28,2.65-2.27c-0.44-0.91-0.77-1.97-1.02-3.12c-0.22,0.49-0.44,0.94-0.7,1.3
				c-0.12-0.14-0.38-0.36-0.55-0.46c0.76-1.08,1.31-2.97,1.62-4.84l0.91,0.19c-0.02,0.09-0.1,0.13-0.24,0.13
				c-0.11,0.57-0.24,1.15-0.39,1.71h3.25V83.45z M135.18,83.45l-0.03,0.11c0.22,1.29,0.54,2.5,1,3.54c0.49-1.01,0.81-2.23,1.02-3.65
				H135.18z"/>
			<path d="M149.22,81.85v0.66h-5.73l0.1,0.03c-0.04,0.07-0.12,0.1-0.24,0.1c-0.27,0.39-0.67,0.9-1.05,1.34
				c1.43-0.02,3.1-0.05,4.74-0.1c-0.44-0.34-0.91-0.69-1.36-0.97l0.57-0.38c0.98,0.62,2.21,1.55,2.81,2.2l-0.6,0.44
				c-0.18-0.21-0.44-0.45-0.73-0.71c-2.66,0.1-5.46,0.19-7.24,0.23c-0.02,0.09-0.08,0.14-0.16,0.16l-0.3-0.84l1.45-0.02
				c0.35-0.43,0.76-1,1.05-1.49h-2.95v-0.66H144v-1.12l0.95,0.06c-0.01,0.08-0.06,0.13-0.2,0.14v0.91H149.22z M147.62,85.42v4.51
				c0,0.41-0.11,0.59-0.43,0.7c-0.32,0.1-0.88,0.1-1.75,0.1c-0.04-0.18-0.15-0.43-0.25-0.6c0.33,0.01,0.66,0.01,0.91,0.01h0.56
				c0.17-0.01,0.23-0.05,0.23-0.21v-0.99h-4.95v1.81h-0.72v-5.31H147.62z M146.89,86.03h-4.95v0.89h4.95V86.03z M141.94,88.37h4.95
				v-0.89h-4.95V88.37z"/>
			<path d="M159.97,87.09v0.68h-4.46v2.09c0,0.9-0.52,0.91-2.51,0.91c-0.05-0.2-0.19-0.5-0.31-0.71c0.55,0.02,1.03,0.03,1.38,0.03
				c0.62,0,0.7,0,0.7-0.24v-2.09h-4.41v-0.68h4.41v-0.94l0.51,0.03c0.55-0.28,1.12-0.66,1.56-1.02h-4.68v-0.65h5.44l0.13-0.04
				l0.56,0.36c-0.03,0.05-0.1,0.09-0.16,0.1c-0.63,0.6-1.66,1.3-2.61,1.77v0.39H159.97z M151.31,83.22v1.73h-0.69v-2.39h1.68
				c-0.2-0.42-0.6-0.99-0.96-1.41l0.6-0.29c0.43,0.47,0.89,1.11,1.09,1.54l-0.31,0.16H155c-0.16-0.48-0.52-1.15-0.85-1.65l0.62-0.24
				c0.39,0.54,0.77,1.26,0.91,1.72l-0.38,0.16h1.88c0.42-0.49,0.95-1.25,1.24-1.76c0.68,0.25,0.76,0.3,0.85,0.35
				c-0.03,0.07-0.12,0.1-0.23,0.09c-0.27,0.39-0.66,0.89-1.03,1.32h1.75v2.39h-0.71v-1.73H151.31z"/>
			<path d="M164.37,84.88c0.25-0.56,0.54-1.46,0.69-2.08l0.83,0.24c-0.02,0.06-0.1,0.1-0.23,0.11c-0.16,0.53-0.43,1.3-0.68,1.84h1.6
				v0.67h-5.67v-0.67h3.79L164.37,84.88z M166.4,82v0.65h-5.21V82h2.24v-1.26l0.91,0.05c-0.01,0.08-0.08,0.13-0.21,0.15V82H166.4z
				 M161.66,90.74v-4.09h4.26v4.02h-0.7v-0.55h-2.87v0.61H161.66z M162.49,82.91c0.25,0.55,0.45,1.28,0.52,1.75l-0.63,0.15
				c-0.05-0.47-0.25-1.22-0.47-1.78L162.49,82.91z M165.22,87.3h-2.87v2.18h2.87V87.3z M170.45,81.35l0.47,0.24
				c-0.01,0.05-0.05,0.09-0.1,0.11c-0.41,0.92-0.98,2.08-1.57,3.21c1.16,1.09,1.65,1.89,1.65,2.67c0,1.69-1.17,1.69-1.87,1.69
				c-0.16,0-0.33,0-0.5-0.01c-0.01-0.19-0.11-0.51-0.25-0.71c0.24,0.02,0.46,0.03,0.67,0.03c0.72,0,1.24-0.03,1.24-1.02
				c0-0.7-0.53-1.45-1.7-2.53c0.53-1.07,0.99-2.08,1.36-2.95h-2.14v8.66H167v-9.35h3.3L170.45,81.35z"/>
		</g>
		<path class="st8" d="M302.72,114.92c-1.19-2.06-4.48-3.31-11.29-3.45c-6.81,0.13-10.1,1.39-11.29,3.45
			c-1.19,2.06-0.63,5.53,2.66,11.5c3.52,5.84,6.25,8.05,8.63,8.05c2.38,0,5.11-2.22,8.63-8.05
			C303.35,120.45,303.91,116.98,302.72,114.92z"/>
		<g>
			<path class="st9" d="M289.11,122.95h-0.59v1.04h-1.43v-1.04h-2.14v-1.07l2.23-3.27h1.34v3.25h0.59V122.95z M287.08,121.86v-0.62
				c0-0.12,0-0.28,0.01-0.48c0.01-0.2,0.02-0.3,0.02-0.31h-0.04c-0.08,0.19-0.18,0.37-0.28,0.53l-0.6,0.89H287.08z"/>
			<path class="st9" d="M293.37,121.31c0,0.95-0.16,1.65-0.48,2.09c-0.32,0.44-0.81,0.66-1.46,0.66c-0.64,0-1.13-0.23-1.45-0.69
				c-0.33-0.46-0.49-1.15-0.49-2.06c0-0.96,0.16-1.66,0.48-2.1c0.32-0.45,0.81-0.67,1.46-0.67c0.64,0,1.12,0.23,1.45,0.7
				C293.21,119.7,293.37,120.39,293.37,121.31z M290.93,121.31c0,0.61,0.04,1.03,0.11,1.25c0.08,0.23,0.2,0.34,0.38,0.34
				c0.18,0,0.31-0.12,0.38-0.35s0.11-0.65,0.11-1.24c0-0.6-0.04-1.01-0.11-1.25c-0.08-0.24-0.2-0.36-0.38-0.36
				c-0.18,0-0.31,0.12-0.38,0.34C290.97,120.27,290.93,120.7,290.93,121.31z"/>
			<path class="st9" d="M293.89,121.72c0-0.75,0.11-1.36,0.32-1.82c0.21-0.46,0.53-0.81,0.95-1.03c0.42-0.22,0.93-0.33,1.55-0.33
				c0.22,0,0.47,0.02,0.76,0.06v1.14c-0.25-0.05-0.51-0.07-0.8-0.07c-0.48,0-0.85,0.11-1.08,0.32c-0.24,0.21-0.37,0.56-0.39,1.04
				h0.04c0.22-0.42,0.57-0.63,1.06-0.63c0.48,0,0.85,0.15,1.11,0.46c0.26,0.31,0.4,0.74,0.4,1.28c0,0.59-0.17,1.06-0.5,1.4
				c-0.33,0.34-0.8,0.51-1.4,0.51c-0.63,0-1.13-0.21-1.49-0.62S293.89,122.46,293.89,121.72z M295.88,122.91
				c0.15,0,0.28-0.06,0.38-0.17c0.1-0.12,0.15-0.3,0.15-0.56c0-0.44-0.17-0.65-0.51-0.65c-0.17,0-0.3,0.06-0.41,0.17
				c-0.1,0.11-0.16,0.25-0.16,0.41c0,0.24,0.05,0.43,0.15,0.58C295.59,122.84,295.72,122.91,295.88,122.91z"/>
		</g>
		<line class="st1" x1="241.5" y1="505" x2="241.5" y2="35"/>
		<g>
			<path d="M228.62,24.06v0.93h-9.58v-0.93h4.22V22.3h-3.26v-0.92h3.26v-1.21h1.03v1.21h3.4v0.92h-3.4v1.76H228.62z M219.44,18.98
				c0.49-0.01,1.08-0.01,1.71-0.02c0.32-0.57,0.67-1.26,0.93-1.88h-2.79v-0.92h9.13v0.92h-5.08c-0.31,0.62-0.68,1.29-1.02,1.85
				c1.14-0.02,2.41-0.05,3.68-0.09c-0.42-0.38-0.86-0.74-1.27-1.04l0.82-0.55c1.01,0.72,2.31,1.81,2.94,2.58l-0.88,0.63
				c-0.17-0.23-0.4-0.48-0.67-0.75c-2.71,0.12-5.58,0.24-7.47,0.29L219.44,18.98z"/>
			<path d="M239.37,21.14v0.8h-9.61v-0.8h2.05c-0.11-0.29-0.3-0.65-0.5-0.9l0.59-0.14h-1.82v-0.74h3.93v-0.6h-2.96v-0.73h2.96v-0.58
				h-3.64V16.7h1.94c-0.12-0.29-0.32-0.65-0.52-0.92l0.9-0.25c0.28,0.32,0.54,0.8,0.66,1.11l-0.17,0.05h2.56l-0.05-0.01
				c0.2-0.34,0.47-0.83,0.6-1.17l1.04,0.2c-0.2,0.37-0.42,0.71-0.61,0.98h2.01v0.74h-3.7v0.58h3.03v0.73h-3.03v0.6h4.02v0.74h-1.85
				l0.62,0.12c-0.21,0.35-0.42,0.68-0.59,0.92H239.37z M231.23,22.46h6.72v2.9h-1.02v-0.3h-4.71v0.33h-0.99V22.46z M232.22,23.24
				v1.03h4.71v-1.03H232.22z M232.31,20.09c0.22,0.29,0.43,0.68,0.53,0.95l-0.35,0.1h1.55v-1.04H232.31z M235.05,20.09v1.04h1.61
				l-0.41-0.08c0.18-0.28,0.4-0.67,0.54-0.97H235.05z"/>
			<path d="M248.83,24.44c0.4,0,0.45-0.25,0.51-1.75c0.22,0.17,0.65,0.36,0.93,0.43c-0.12,1.79-0.38,2.26-1.34,2.26h-1.43
				c-1.05,0-1.33-0.31-1.33-1.37v-3.53h-1.77c-0.2,2.29-0.71,4.02-3.44,4.93c-0.11-0.26-0.4-0.67-0.62-0.86
				c2.47-0.75,2.83-2.16,3-4.07h-2.75v-0.96h4.23v-3.99h1.01v3.99h4.31v0.96h-2.95v3.53c0,0.36,0.06,0.43,0.45,0.43H248.83z
				 M242.59,19.01c-0.17-0.69-0.69-1.81-1.19-2.65l0.9-0.33c0.53,0.81,1.08,1.88,1.26,2.6L242.59,19.01z M249.39,16.3
				c-0.45,0.94-1.02,2-1.47,2.67l-0.86-0.33c0.45-0.72,1-1.85,1.29-2.71L249.39,16.3z"/>
			<path d="M258.47,19.89v1.21h2.23v0.96h-2.23v2.17c0,0.57-0.12,0.86-0.55,1.01c-0.42,0.15-1.05,0.16-1.99,0.16
				c-0.04-0.29-0.19-0.71-0.33-0.99c0.69,0.02,1.38,0.01,1.58,0.01c0.2-0.01,0.25-0.05,0.25-0.2v-2.16h-5.92v-0.96h5.92v-1.21h-6.16
				v-0.96h4.25v-1.23h-3.31v-0.95h3.31v-1.25h1.04v1.25h3.55v0.95h-3.55v1.23h4.35v0.96H258.47z M253.68,22.11
				c0.59,0.52,1.3,1.25,1.6,1.8l-0.94,0.59c-0.26-0.54-0.95-1.32-1.54-1.86L253.68,22.11z"/>
		</g>
		<g>
			<g>
				<g>
					<g>
						<g>
							<path class="st10" d="M468.02,173.41h1.36l0,3.01h-1.36c-0.16-0.37-0.36-0.67-0.6-0.88c-0.41-0.37-0.99-0.66-1.74-0.86
								c-0.52-0.14-1-0.22-1.44-0.22c-0.51,0-0.94,0.09-1.3,0.27c-0.17,0.09-0.31,0.2-0.41,0.35c-0.1,0.14-0.15,0.29-0.15,0.46
								c0,0.35,0.19,0.58,0.58,0.7c0.05,0.01,0.22,0.05,0.52,0.1c0.3,0.05,0.5,0.09,0.59,0.09l1.94,0.22
								c0.73,0.08,1.25,0.18,1.58,0.28c0.7,0.22,1.23,0.61,1.56,1.15c0.31,0.51,0.47,1.11,0.47,1.79c0,1.02-0.35,1.8-1.04,2.35
								c-0.7,0.56-1.63,0.84-2.8,0.84c-0.99,0-1.93-0.2-2.82-0.61c-0.37-0.17-0.58-0.26-0.64-0.29c-0.18-0.08-0.37-0.12-0.56-0.12
								c-0.4,0-0.62,0.22-0.65,0.67h-1.3l0-3.32h1.39c0.09,0.35,0.23,0.64,0.41,0.86c0.39,0.49,0.97,0.87,1.75,1.13
								c0.5,0.17,1.05,0.25,1.65,0.25c0.54,0,1.02-0.1,1.42-0.29c0.43-0.21,0.65-0.48,0.65-0.82c0-0.31-0.2-0.53-0.59-0.66
								c-0.2-0.06-0.58-0.13-1.14-0.22l-1.86-0.26c-0.9-0.13-1.52-0.26-1.84-0.38c-0.7-0.27-1.21-0.68-1.52-1.23
								c-0.26-0.47-0.39-0.97-0.39-1.52c0-0.98,0.39-1.76,1.17-2.36c0.72-0.55,1.67-0.82,2.84-0.82c0.92,0,1.98,0.23,3.18,0.68
								c0.32,0.12,0.54,0.17,0.66,0.17C467.87,173.92,468.02,173.75,468.02,173.41z"/>
						</g>
						<g>
							<path class="st10" d="M480.49,173.33c0,0,3.55,6.66,3.66,6.84c0.2,0.31,0.46,0.54,0.79,0.68c0.14,0.06,0.3,0.09,0.48,0.1
								v1.83h-5.49v-1.83c0.47,0,0.79-0.04,0.95-0.12c0.2-0.09,0.29-0.24,0.29-0.45c0-0.16-0.06-0.37-0.18-0.64l-4.31,0
								c-0.12,0.22-0.19,0.4-0.19,0.55c0,0.3,0.14,0.49,0.43,0.58c0.1,0.03,0.37,0.06,0.82,0.08v1.83h-4.4v-1.83
								c0.46-0.02,0.81-0.13,1.06-0.32c0.23-0.16,0.51-0.62,0.85-1.36l3.14-5.93H480.49z M480.3,178.2l-1.51-2.83l-1.45,2.83H480.3z
								"/>
						</g>
						<g>
							<path class="st10" d="M500.07,182.78h-1.37l-5.95-5.92v2.1c0,0.52,0.01,0.87,0.02,1.02c0.06,0.46,0.27,0.76,0.63,0.9
								c0.12,0.06,0.37,0.09,0.73,0.1l0.26,0l0,1.79h-4.78v-1.79h0.26c0.24,0,0.45-0.02,0.64-0.07c0.16-0.04,0.3-0.12,0.42-0.24
								c0.13-0.13,0.21-0.28,0.25-0.45c0.04-0.17,0.07-0.38,0.07-0.61c0-0.1,0-0.31,0-0.65v-1.7c0-0.56-0.01-0.92-0.02-1.09
								c-0.06-0.48-0.27-0.8-0.63-0.96c-0.13-0.06-0.38-0.1-0.74-0.11h-0.26l0-1.78l3.76,0l5.19,5.19v-1.27
								c0-0.55-0.01-0.91-0.03-1.08c-0.05-0.48-0.26-0.79-0.63-0.95c-0.13-0.06-0.38-0.1-0.74-0.11h-0.28v-1.78h4.8l0,1.78h-0.23
								c-0.24,0-0.45,0.03-0.64,0.08c-0.16,0.03-0.3,0.12-0.42,0.25c-0.13,0.12-0.21,0.27-0.25,0.44c-0.04,0.17-0.07,0.38-0.07,0.61
								c0,0.04,0,0.26,0,0.66V182.78z"/>
						</g>
						<g>
							<path class="st10" d="M514.39,179.15h1.45c-0.14,0.6-0.33,1.11-0.56,1.52c-0.23,0.41-0.55,0.8-0.94,1.15
								c-0.93,0.82-2.21,1.22-3.84,1.22c-1.58,0-2.88-0.41-3.9-1.22c-1.16-0.92-1.73-2.19-1.73-3.78c0-1.11,0.29-2.09,0.87-2.92
								c0.52-0.74,1.27-1.3,2.25-1.66c0.7-0.26,1.42-0.39,2.16-0.39c0.89,0,1.81,0.19,2.76,0.57c0.4,0.16,0.67,0.24,0.84,0.24
								c0.29,0,0.46-0.17,0.51-0.5h1.6v3.66h-1.6c-0.1-0.37-0.22-0.67-0.37-0.9c-0.31-0.47-0.7-0.82-1.19-1.03
								c-0.48-0.21-0.97-0.32-1.48-0.32c-0.82,0-1.52,0.29-2.12,0.87c-0.63,0.62-0.94,1.37-0.94,2.26c0,0.91,0.3,1.7,0.9,2.35
								c0.62,0.68,1.41,1.02,2.36,1.02c0.85,0,1.57-0.29,2.15-0.86C513.87,180.13,514.15,179.7,514.39,179.15z"/>
						</g>
						<g>
							<path class="st10" d="M524.78,178.99l0,0.16c0,0.45,0.03,0.79,0.08,1.01c0.09,0.37,0.32,0.61,0.68,0.71
								c0.12,0.03,0.25,0.05,0.4,0.06c0.13,0,0.22,0.01,0.25,0.01l0.05,0.01v1.83l-5.64,0v-1.83l0.28-0.01
								c0.29-0.01,0.52-0.04,0.68-0.09c0.16-0.05,0.29-0.13,0.41-0.25c0.17-0.19,0.27-0.46,0.3-0.82c0.01-0.12,0.02-0.42,0.02-0.92
								l0-1.65c0-0.54-0.01-0.89-0.03-1.05c-0.05-0.46-0.27-0.77-0.64-0.91c-0.12-0.06-0.37-0.1-0.74-0.11l-0.28-0.01v-1.82h5.64
								v1.82l-0.05,0.01c-0.03,0.01-0.12,0.02-0.25,0.02c-0.49,0.02-0.83,0.21-1.01,0.56c-0.1,0.24-0.15,0.65-0.15,1.22l0,0.16
								l3.7,0l0-0.16c0-0.46-0.03-0.79-0.08-1.02c-0.09-0.37-0.32-0.6-0.68-0.7c-0.16-0.03-0.38-0.05-0.65-0.09l-0.05,0v-1.82h5.64
								v1.82l-0.28,0.01c-0.29,0.01-0.52,0.04-0.68,0.09c-0.16,0.05-0.29,0.13-0.41,0.25c-0.17,0.18-0.27,0.45-0.31,0.81
								c-0.01,0.12-0.02,0.42-0.02,0.92v1.65c0,0.54,0.01,0.88,0.03,1.04c0.06,0.47,0.27,0.77,0.64,0.92
								c0.12,0.06,0.36,0.09,0.74,0.1l0.28,0.01v1.83h-5.64v-1.83l0.05-0.01c0.04,0,0.12-0.01,0.25-0.01
								c0.49-0.02,0.82-0.21,1.01-0.57c0.1-0.23,0.15-0.64,0.15-1.21l0-0.16L524.78,178.99z"/>
						</g>
					</g>
					<polygon class="st3" points="532.67,183.04 495.66,183.04 458.64,183.04 458.64,178.05 458.64,173.07 495.66,173.07 
						532.67,173.07 532.67,178.05 					"/>
				</g>
			</g>
		</g>
		<rect x="351.5" y="77.5" class="st11" width="53" height="16"/>
		<g>
			<path d="M449.77,202.24c-0.15-0.31-0.45-0.85-0.74-1.32v5.31h-0.92v-4.55c-0.32,1.02-0.72,1.97-1.15,2.58
				c-0.1-0.27-0.33-0.65-0.47-0.86c0.63-0.88,1.25-2.47,1.54-3.84h-1.31v-0.93h1.4v-2.27h0.92v2.27h1.15v0.93h-1.15v0.24
				c0.32,0.4,1.1,1.44,1.27,1.7L449.77,202.24z M456.45,205.88h-4.22v0.33h-0.94v-3.75c-0.25,0.28-0.51,0.54-0.77,0.76
				c-0.14-0.18-0.5-0.57-0.7-0.74c0.8-0.6,1.47-1.43,2.01-2.4h-1.51v-0.85h0.77c-0.19-0.15-0.57-0.4-0.8-0.52
				c0.57-0.58,1.04-1.51,1.3-2.41l0.93,0.21c-0.1,0.3-0.2,0.59-0.32,0.88h3.92v0.84h-2.5c-0.12,0.33-0.24,0.67-0.37,0.99h3.17v0.85
				h-2.27l0.83,0.16c-0.13,0.25-0.27,0.5-0.4,0.73h1.67v0.72h-1.86v0.68h1.65v0.67h-1.65v0.69h1.66v0.67h-1.66v0.72h2.04V205.88z
				 M452.26,199.24c0.14-0.32,0.27-0.65,0.38-0.99h-0.83c-0.21,0.38-0.44,0.72-0.68,0.99H452.26z M453.51,201.7h-1.28v0.68h1.28
				V201.7z M453.51,203.04h-1.28v0.69h1.28V203.04z M452.23,205.12h1.28v-0.72h-1.28V205.12z M452.88,200.08
				c-0.15,0.31-0.31,0.6-0.48,0.89h1.22c0.15-0.3,0.29-0.63,0.39-0.89H452.88z"/>
			<path d="M466.95,205.08v0.88h-9.35v-0.88h4.13v-1.09h-3.18v-0.87h3.18v-0.9h-2.42v-2.59h5.94v2.59h-2.51v0.9h3.39v0.87h-3.39
				v1.09H466.95z M458.56,200.44h-0.91v-2.42h1.74c-0.19-0.38-0.49-0.85-0.79-1.2l0.89-0.36c0.37,0.42,0.75,0.99,0.92,1.38
				l-0.4,0.18h1.71v-1.67h1.01v1.67h1.84l-0.51-0.18c0.31-0.39,0.7-0.99,0.93-1.42l1.04,0.33c-0.33,0.47-0.7,0.94-1.02,1.27h1.88
				v2.42h-0.96v-1.55h-7.39V200.44z M460.24,201.43h4.02v-1.02h-4.02V201.43z"/>
			<path d="M467.96,205.38c0.38-0.55,0.52-1.5,0.56-2.43l0.57,0.11c-0.05,0.99-0.16,2.01-0.59,2.62L467.96,205.38z M472.72,201.61
				c0,0-0.01,0.26-0.02,0.38c-0.13,2.6-0.25,3.57-0.52,3.91c-0.17,0.2-0.35,0.29-0.6,0.31c-0.23,0.03-0.59,0.03-0.98,0.01
				c-0.01-0.24-0.1-0.58-0.22-0.8c0.33,0.04,0.63,0.04,0.77,0.04c0.13,0,0.22-0.02,0.3-0.12c0.11-0.13,0.18-0.46,0.26-1.18
				l-0.35,0.14c-0.09-0.38-0.31-0.96-0.56-1.39l0.43-0.15c0.2,0.33,0.39,0.75,0.51,1.09c0.03-0.39,0.06-0.86,0.09-1.44h-3.25v-5.64
				h4v0.83h-1.44v0.8h1.25v0.79h-1.25V200h1.25v0.79h-1.25v0.83H472.72z M469.77,203.12c0.11,0.62,0.16,1.42,0.15,1.95l-0.51,0.08
				c0.02-0.54-0.03-1.33-0.13-1.97L469.77,203.12z M469.42,197.6v0.8h0.88v-0.8H469.42z M470.31,199.18h-0.88V200h0.88V199.18z
				 M469.42,201.61h0.88v-0.83h-0.88V201.61z M470.44,204.81c-0.03-0.46-0.19-1.18-0.38-1.73l0.46-0.1
				c0.19,0.54,0.37,1.26,0.41,1.72L470.44,204.81z M475.95,201.3c0.31,1.85,0.94,3.4,2.11,4.16c-0.21,0.17-0.52,0.55-0.65,0.81
				c-1.37-0.97-2-2.73-2.36-4.97h-0.76c-0.03,1.61-0.24,3.64-1.16,4.96c-0.17-0.16-0.58-0.42-0.81-0.52
				c0.96-1.37,1.03-3.36,1.03-4.91v-4.07h4.23v4.53H475.95z M474.3,197.69v2.69h2.39v-2.69H474.3z"/>
			<path d="M488,201.77v4.44h-1.03v-0.63h-6.36v0.66h-1.01v-4.46h1.01v2.83h2.59v-3.47h-3.19v-3.75h1v2.79h2.19v-3.72h1.02v3.72h2.3
				v-2.8h1.05v3.77h-3.36v3.47h2.74v-2.83H488z"/>
			<path d="M498.62,197.44v8.52h-1.09v-0.85h-6.02V206h-1.03v-8.56H498.62z M497.53,204.09v-5.64h-6.02v5.64H497.53z"/>
		</g>
		<g>
			<path d="M371.59,81.16v9.05h-1.03v-0.66h-6.72v0.66h-0.99v-9.05H371.59z M363.83,82.12v2.69h2.8v-2.69H363.83z M363.83,88.54h2.8
				v-2.73h-2.8V88.54z M370.56,82.12h-2.92v2.69h2.92V82.12z M370.56,88.54v-2.73h-2.92v2.73H370.56z"/>
			<path d="M377.99,88.3h-3.74v0.82h-0.85v-8.17h4.59V88.3z M374.25,81.82v2.3h1.03v-2.3H374.25z M374.25,87.41h1.03v-2.42h-1.03
				V87.41z M377.12,81.82h-1.04v2.3h1.04V81.82z M377.12,87.41v-2.42h-1.04v2.42H377.12z M382.96,82.64h-1.45v6.44
				c0,0.58-0.13,0.88-0.54,1.05c-0.42,0.16-1.08,0.17-2.07,0.17c-0.04-0.28-0.19-0.73-0.34-1c0.71,0.03,1.44,0.02,1.66,0.01
				c0.2,0,0.27-0.06,0.27-0.25v-6.43h-2.28v-0.98h4.75V82.64z"/>
			<path d="M390.28,82.05v1.38h2.76v6.81h-1.01v-0.6h-6.64v0.62h-0.98v-6.83h2.52v-1.38h-2.96v-0.97h9.44v0.97H390.28z M392.04,88.7
				v-1.82c-0.16,0.16-0.38,0.22-0.68,0.22h-0.99c-0.89,0-1.09-0.26-1.09-1.15v-1.59h-1.37v0.34c0,1.02-0.33,2.24-1.85,3
				c-0.12-0.17-0.45-0.48-0.67-0.62v1.62H392.04z M385.4,84.35v2.67c1.36-0.67,1.59-1.58,1.59-2.36v-0.31H385.4z M389.29,82.05
				h-1.38v1.38h1.38V82.05z M392.04,84.35h-1.8v1.59c0,0.25,0.03,0.27,0.28,0.27h0.72c0.22,0,0.26-0.09,0.29-0.7
				c0.11,0.09,0.31,0.18,0.51,0.25V84.35z"/>
		</g>
		<line class="st2" x1="388" y1="245.36" x2="408.96" y2="228.58"/>
		<rect x="345.5" y="240.5" class="st11" width="53" height="17"/>
		<g>
			<path d="M359.01,249.82c-0.15-0.31-0.45-0.85-0.74-1.32v5.31h-0.92v-4.55c-0.32,1.02-0.72,1.97-1.15,2.58
				c-0.1-0.27-0.33-0.65-0.47-0.86c0.63-0.88,1.25-2.47,1.54-3.84h-1.31v-0.93h1.4v-2.27h0.92v2.27h1.15v0.93h-1.15v0.24
				c0.32,0.4,1.1,1.44,1.27,1.7L359.01,249.82z M365.69,253.47h-4.22v0.33h-0.94v-3.75c-0.25,0.28-0.51,0.54-0.77,0.76
				c-0.14-0.18-0.5-0.57-0.7-0.74c0.8-0.6,1.47-1.43,2.01-2.4h-1.51v-0.85h0.77c-0.19-0.15-0.57-0.4-0.8-0.52
				c0.57-0.58,1.04-1.51,1.3-2.41l0.93,0.21c-0.1,0.3-0.2,0.59-0.32,0.88h3.92v0.84h-2.5c-0.12,0.33-0.24,0.67-0.37,0.99h3.17v0.85
				h-2.27l0.83,0.16c-0.13,0.25-0.27,0.5-0.4,0.73h1.67v0.72h-1.86v0.68h1.65v0.67h-1.65v0.69h1.66v0.67h-1.66v0.72h2.04V253.47z
				 M361.5,246.82c0.14-0.32,0.27-0.65,0.38-0.99h-0.83c-0.21,0.38-0.44,0.72-0.68,0.99H361.5z M362.76,249.28h-1.28v0.68h1.28
				V249.28z M362.76,250.63h-1.28v0.69h1.28V250.63z M361.48,252.7h1.28v-0.72h-1.28V252.7z M362.12,247.67
				c-0.15,0.31-0.31,0.6-0.48,0.89h1.22c0.15-0.3,0.29-0.63,0.39-0.89H362.12z"/>
			<path d="M376.19,252.66v0.88h-9.35v-0.88h4.13v-1.09h-3.18v-0.87h3.18v-0.9h-2.42v-2.59h5.94v2.59h-2.51v0.9h3.39v0.87h-3.39
				v1.09H376.19z M367.8,248.02h-0.91v-2.42h1.74c-0.19-0.38-0.49-0.85-0.79-1.2l0.89-0.36c0.37,0.42,0.75,0.99,0.92,1.38l-0.4,0.18
				h1.71v-1.67h1.01v1.67h1.84l-0.51-0.18c0.31-0.39,0.7-0.99,0.93-1.42l1.04,0.33c-0.33,0.47-0.7,0.94-1.02,1.27h1.88v2.42h-0.96
				v-1.55h-7.39V248.02z M369.48,249.01h4.02v-1.02h-4.02V249.01z"/>
			<path d="M377.2,252.96c0.38-0.55,0.52-1.5,0.56-2.43l0.57,0.11c-0.05,0.99-0.16,2.01-0.59,2.62L377.2,252.96z M381.96,249.2
				c0,0-0.01,0.26-0.02,0.38c-0.13,2.6-0.25,3.57-0.52,3.91c-0.17,0.2-0.35,0.29-0.6,0.31c-0.23,0.03-0.59,0.03-0.98,0.01
				c-0.01-0.24-0.1-0.58-0.22-0.8c0.33,0.04,0.63,0.04,0.77,0.04c0.13,0,0.22-0.02,0.3-0.12c0.11-0.13,0.18-0.46,0.26-1.18
				l-0.35,0.14c-0.09-0.38-0.31-0.96-0.56-1.39l0.43-0.15c0.2,0.33,0.39,0.75,0.51,1.09c0.03-0.39,0.06-0.86,0.09-1.44h-3.25v-5.64
				h4v0.83h-1.44v0.8h1.25v0.79h-1.25v0.82h1.25v0.79h-1.25v0.83H381.96z M379.01,250.7c0.11,0.62,0.16,1.42,0.15,1.95l-0.51,0.08
				c0.02-0.54-0.03-1.33-0.13-1.97L379.01,250.7z M378.67,245.18v0.8h0.88v-0.8H378.67z M379.55,246.77h-0.88v0.82h0.88V246.77z
				 M378.67,249.2h0.88v-0.83h-0.88V249.2z M379.68,252.39c-0.03-0.46-0.19-1.18-0.38-1.73l0.46-0.1c0.19,0.54,0.37,1.26,0.41,1.72
				L379.68,252.39z M385.2,248.88c0.31,1.85,0.94,3.4,2.11,4.16c-0.21,0.17-0.52,0.55-0.65,0.81c-1.37-0.97-2-2.73-2.36-4.97h-0.76
				c-0.03,1.61-0.24,3.64-1.16,4.96c-0.17-0.16-0.58-0.42-0.81-0.52c0.96-1.37,1.03-3.36,1.03-4.91v-4.07h4.23v4.53H385.2z
				 M383.54,245.27v2.69h2.39v-2.69H383.54z"/>
		</g>
		<g>
			<path d="M533.95,107.99h-4.31v3.66h-1.03v-3.66h-4.26v-1.01h4.26v-3.53h-3.7v-0.98h8.43v0.98h-3.7v3.53h4.31V107.99z
				 M526.51,103.89c0.4,0.74,0.81,1.7,0.95,2.32l-0.96,0.32c-0.14-0.61-0.51-1.61-0.89-2.37L526.51,103.89z M530.67,106.27
				c0.37-0.65,0.82-1.67,1.05-2.42l1.06,0.29c-0.39,0.84-0.86,1.81-1.26,2.41L530.67,106.27z"/>
			<path d="M538.97,107.95c-0.23-0.38-0.67-1.01-1.05-1.54v5.22h-0.98v-4.81c-0.43,1.14-0.98,2.24-1.57,2.93
				c-0.11-0.29-0.36-0.71-0.53-0.96c0.79-0.88,1.55-2.41,1.94-3.81h-1.66v-0.95h1.82v-2.27h0.98v2.27h1.46v0.95h-1.46v0.21
				c0.34,0.32,1.44,1.59,1.69,1.89L538.97,107.95z M542.88,104.98c0.47,1.59,1.24,3.21,2.07,4.12c-0.24,0.17-0.58,0.52-0.76,0.79
				c-0.58-0.76-1.11-1.92-1.54-3.14v4.88h-1v-4.82c-0.55,1.31-1.27,2.53-2.04,3.3c-0.12-0.29-0.39-0.67-0.58-0.91
				c1.01-0.96,1.95-2.6,2.44-4.22h-1.67v-0.95h1.85v-2.27h1v2.27h1.97v0.95H542.88z"/>
			<path d="M548.64,104.26c-0.24,0.53-0.54,1.04-0.86,1.54v5.86h-0.92v-4.63c-0.27,0.3-0.55,0.59-0.82,0.83
				c-0.1-0.19-0.39-0.69-0.56-0.89c0.88-0.73,1.75-1.86,2.27-3.01L548.64,104.26z M548.39,102.1c-0.55,0.89-1.42,1.88-2.24,2.52
				c-0.12-0.2-0.38-0.56-0.54-0.75c0.72-0.53,1.48-1.39,1.86-2.1L548.39,102.1z M552.65,110.38c-1.54,0.21-3.14,0.39-4.31,0.53
				l-0.11-0.92c0.49-0.04,1.1-0.11,1.75-0.17v-1.5h-1.45v-0.86h1.45v-1.22h0.95v1.22h1.46v0.86h-1.46v1.39
				c0.55-0.06,1.13-0.13,1.69-0.19L552.65,110.38z M550,103.89h-1.33v-0.85H550v-1.27h0.94v1.27h1.34v0.85h-1.34v1.26h1.53v0.88h-4
				v-0.88H550V103.89z M555.56,106.13h-0.9v4.37c0,0.52-0.1,0.82-0.44,0.97c-0.33,0.17-0.86,0.18-1.61,0.18
				c-0.03-0.28-0.16-0.71-0.28-1c0.52,0.01,1,0.02,1.15,0.01c0.15,0,0.19-0.04,0.19-0.18v-4.35h-1.02v-0.89h2.92V106.13z
				 M555.42,103.27h-2.69v-0.89h2.69V103.27z"/>
			<path d="M558.94,109.34c0.47,0.74,1.36,1.09,2.54,1.13c1.19,0.04,3.58,0.01,4.93-0.08c-0.12,0.24-0.28,0.71-0.33,1.02
				c-1.22,0.05-3.38,0.08-4.6,0.02c-1.37-0.05-2.29-0.41-2.97-1.24c-0.51,0.44-1.02,0.87-1.58,1.33l-0.52-1.03
				c0.48-0.3,1.05-0.7,1.56-1.11v-2.53h-1.38v-0.92h2.36V109.34z M558.44,104.32c-0.34-0.51-1.12-1.23-1.8-1.7l0.74-0.6
				c0.67,0.46,1.47,1.13,1.84,1.65L558.44,104.32z M561.98,104.6c0.05-0.24,0.11-0.5,0.15-0.73h-2.73v-0.82h1.68
				c-0.14-0.31-0.38-0.68-0.6-0.97l0.77-0.3c0.32,0.34,0.63,0.83,0.75,1.17l-0.24,0.1h1.59c0.24-0.38,0.52-0.92,0.67-1.29l1.01,0.24
				c-0.23,0.38-0.46,0.75-0.67,1.05h1.82v0.82h-2.97c-0.1,0.26-0.2,0.51-0.3,0.73h2.43v5.11h-5.09v-5.11H561.98z M564.36,105.33
				h-3.15v0.74h3.15V105.33z M564.36,106.76h-3.15v0.74h3.15V106.76z M564.36,108.21h-3.15v0.74h3.15V108.21z"/>
		</g>
		<g>
			<path d="M131.42,318.52c0,0,0,0.26-0.01,0.4c-0.11,2.31-0.23,3.24-0.5,3.56c-0.2,0.23-0.4,0.31-0.71,0.34
				c-0.26,0.03-0.73,0.03-1.22,0.02c-0.02-0.28-0.13-0.67-0.29-0.92c0.45,0.04,0.87,0.04,1.04,0.04c0.16,0,0.26-0.02,0.35-0.12
				c0.15-0.17,0.25-0.82,0.33-2.42h-1.89c-0.23,1.59-0.76,2.92-2.46,3.68c-0.11-0.21-0.35-0.56-0.56-0.72v3.47h-2.29v0.83h-0.95
				v-7.89h3.24v3.54c1.43-0.62,1.85-1.68,2.02-2.92h-1.6v-0.9H131.42z M123.23,319.7v2.13h1.39v-2.13H123.23z M124.62,324.95v-2.24
				h-1.39v2.24H124.62z M126.25,323.44h5.02v4.38h-0.99v-0.44h-3.08v0.48h-0.96V323.44z M127.21,324.33v2.14h3.08v-2.14H127.21z"/>
			<path d="M135.78,321.16h1.73v0.93h-1.73v0.25c0.42,0.42,1.48,1.65,1.73,1.97l-0.6,0.82c-0.22-0.39-0.71-1.08-1.13-1.65v4.38h-1
				v-4.32c-0.48,1.14-1.1,2.24-1.73,2.92c-0.11-0.28-0.34-0.67-0.53-0.92c0.79-0.79,1.56-2.16,2.01-3.43h-1.75v-0.93h2v-1.6
				c-0.56,0.1-1.13,0.16-1.66,0.23c-0.04-0.21-0.17-0.55-0.28-0.77c1.41-0.19,3.03-0.53,3.99-0.9l0.67,0.77
				c-0.51,0.19-1.1,0.36-1.72,0.47V321.16z M141.95,318.99v8.3h-1.02v-0.8h-2.1v0.87h-0.97v-8.38H141.95z M140.92,325.55v-5.59h-2.1
				v5.59H140.92z"/>
			<path d="M145.86,325.61c0.46,0.75,1.31,1.08,2.5,1.13c1.22,0.05,3.69,0.02,5.06-0.08c-0.11,0.23-0.27,0.69-0.32,0.98
				c-1.24,0.05-3.5,0.08-4.74,0.03c-1.33-0.05-2.26-0.41-2.92-1.24c-0.52,0.44-1.05,0.88-1.66,1.33l-0.47-0.99
				c0.49-0.3,1.09-0.71,1.6-1.12v-2.57h-1.47v-0.92h2.43V325.61z M145.39,320.63c-0.34-0.53-1.12-1.28-1.8-1.78l0.7-0.62
				c0.67,0.46,1.47,1.16,1.84,1.68L145.39,320.63z M147.82,326.17h-0.94v-5.51h2.76c-0.58-0.28-1.23-0.56-1.77-0.77l0.65-0.54
				c0.42,0.15,0.91,0.34,1.39,0.55c0.41-0.21,0.83-0.46,1.18-0.72h-4.16v-0.79h5.09l0.2-0.05l0.6,0.48
				c-0.56,0.52-1.3,1.05-2.05,1.46c0.28,0.13,0.53,0.26,0.73,0.38h1.32v4.58c0,0.45-0.08,0.68-0.39,0.82
				c-0.3,0.13-0.75,0.14-1.44,0.14c-0.03-0.25-0.15-0.58-0.27-0.81c0.45,0.02,0.86,0.01,0.99,0.01c0.12,0,0.16-0.04,0.16-0.17v-0.75
				h-1.6v1.66h-0.9v-1.66h-1.55V326.17z M147.82,321.4v0.79h1.55v-0.79H147.82z M149.37,323.73v-0.81h-1.55v0.81H149.37z
				 M151.87,321.4h-1.6v0.79h1.6V321.4z M151.87,323.73v-0.81h-1.6v0.81H151.87z"/>
			<path d="M157.49,318.5c-0.19,0.67-0.4,1.96-0.46,2.63c0.46-0.98,1.5-2.12,2.78-2.12c1.45,0,2.53,1.43,2.53,3.72
				c0,2.97-1.86,4.33-4.57,4.83l-0.65-0.97c2.33-0.37,4.08-1.23,4.08-3.86c0-1.66-0.55-2.74-1.57-2.74c-1.29,0-2.47,1.92-2.56,3.31
				c-0.04,0.35-0.03,0.72,0.03,1.23l-1.04,0.08c-0.05-0.4-0.13-1.02-0.13-1.72c0-1,0.18-2.46,0.32-3.43c0.04-0.36,0.08-0.72,0.09-1
				L157.49,318.5z"/>
		</g>
		<g>
			<path d="M231.37,252.07v5.14h-1.04v-0.58h-2.8v3.42h-1.04v-3.42h-2.79v0.63h-1v-5.2h3.79v-1.87h1.04v1.87H231.37z M226.49,255.65
				v-2.6h-2.79v2.6H226.49z M230.33,255.65v-2.6h-2.8v2.6H230.33z"/>
			<path d="M227.95,266.88c0.75,1.55,2.09,2.57,4.15,2.98c-0.21,0.23-0.51,0.63-0.63,0.92c-2.19-0.54-3.57-1.72-4.4-3.58
				c-0.54,1.47-1.75,2.79-4.39,3.61c-0.1-0.25-0.37-0.67-0.56-0.87c2.36-0.72,3.45-1.83,3.95-3.07h-3.83v-0.98h1.14v-3.52h3.09
				v-1.43h1.01v1.43h3.29v3.52h1.08v0.98H227.95z M226.35,265.9c0.1-0.5,0.12-1.01,0.12-1.51v-1.03h-2.08v2.54H226.35z
				 M227.48,263.36v1.04c0,0.5-0.02,1-0.1,1.5h2.33v-2.54H227.48z"/>
			<path d="M224.55,279.32c0.46,0.75,1.31,1.08,2.5,1.13c1.22,0.05,3.69,0.02,5.06-0.08c-0.11,0.23-0.27,0.69-0.32,0.98
				c-1.24,0.05-3.5,0.08-4.74,0.03c-1.33-0.05-2.26-0.41-2.92-1.24c-0.52,0.44-1.05,0.88-1.66,1.33l-0.47-0.99
				c0.49-0.3,1.09-0.71,1.6-1.12v-2.57h-1.47v-0.92h2.43V279.32z M224.08,274.34c-0.34-0.53-1.12-1.28-1.8-1.78l0.7-0.62
				c0.67,0.46,1.47,1.16,1.84,1.68L224.08,274.34z M226.51,279.88h-0.94v-5.51h2.76c-0.58-0.28-1.23-0.56-1.77-0.77l0.65-0.54
				c0.42,0.15,0.91,0.34,1.39,0.55c0.41-0.21,0.83-0.46,1.18-0.72h-4.16v-0.79h5.09l0.2-0.05l0.6,0.48
				c-0.56,0.52-1.3,1.05-2.05,1.46c0.28,0.13,0.53,0.26,0.73,0.38h1.32v4.58c0,0.45-0.08,0.68-0.39,0.82
				c-0.3,0.13-0.75,0.14-1.44,0.14c-0.03-0.25-0.15-0.58-0.27-0.81c0.45,0.02,0.86,0.01,0.99,0.01c0.12,0,0.16-0.04,0.16-0.17v-0.75
				h-1.6v1.66h-0.9v-1.66h-1.55V279.88z M226.51,275.11v0.79h1.55v-0.79H226.51z M228.06,277.43v-0.81h-1.55v0.81H228.06z
				 M230.56,275.11h-1.6v0.79h1.6V275.11z M230.56,277.43v-0.81h-1.6v0.81H230.56z"/>
			<path d="M225.55,283.06c-0.19,0.66-0.4,1.9-0.46,2.57c0.45-0.96,1.46-2.06,2.72-2.06c1.41,0,2.46,1.4,2.46,3.64
				c0,2.92-1.81,4.25-4.48,4.73l-0.62-0.96c2.28-0.34,3.99-1.19,3.99-3.76c0-1.63-0.54-2.68-1.54-2.68c-1.27,0-2.41,1.86-2.51,3.24
				c-0.04,0.33-0.03,0.7,0.03,1.19l-1.02,0.08c-0.05-0.4-0.12-1.01-0.12-1.69c0-0.98,0.17-2.41,0.3-3.36
				c0.05-0.35,0.08-0.71,0.09-0.98L225.55,283.06z"/>
		</g>
		<g>
			<path d="M57.41,263.21c-0.68,0.8-1.7,1.6-2.59,2.11c-0.2-0.19-0.57-0.51-0.81-0.66c0.88-0.45,1.86-1.21,2.36-1.84L57.41,263.21z
				 M59.4,262.45v2.98h-1.05v-2.98h-2.72v0.26h-1v-6.17h1v5.04h8.03v0.88H59.4z M62.44,260.88h-5.87v-4.92h5.87V260.88z
				 M61.48,256.67h-3.96v0.71h3.96V256.67z M61.48,258.05h-3.96v0.72h3.96V258.05z M61.48,259.44h-3.96v0.73h3.96V259.44z
				 M61.19,262.78c0.82,0.56,1.95,1.39,2.53,1.94l-0.9,0.61c-0.53-0.54-1.62-1.41-2.47-2.01L61.19,262.78z"/>
			<path d="M63.7,267.61v0.96h-7.98v1.85c0,1.65-0.15,4.12-1.05,5.74c-0.18-0.16-0.62-0.46-0.86-0.56c0.84-1.51,0.91-3.68,0.91-5.2
				v-2.8h3.92v-1.29h1.04v1.29H63.7z M56.29,270.05h7.33V271h-2.99v4.03c0,0.58-0.14,0.86-0.58,1.01c-0.42,0.15-1.1,0.16-2.1,0.16
				c-0.04-0.28-0.2-0.71-0.35-0.98c0.74,0.02,1.52,0.02,1.73,0.01c0.2,0,0.28-0.05,0.28-0.23V271h-3.31V270.05z"/>
			<path d="M56.38,284.7c0.46,0.75,1.31,1.08,2.5,1.13c1.22,0.05,3.69,0.02,5.06-0.08c-0.11,0.23-0.27,0.69-0.32,0.98
				c-1.24,0.05-3.5,0.08-4.74,0.03c-1.33-0.05-2.26-0.41-2.92-1.24c-0.52,0.44-1.05,0.88-1.66,1.33l-0.47-0.99
				c0.49-0.3,1.09-0.71,1.6-1.12v-2.57h-1.47v-0.92h2.43V284.7z M55.9,279.71c-0.34-0.53-1.12-1.28-1.8-1.78l0.7-0.62
				c0.67,0.46,1.47,1.16,1.84,1.68L55.9,279.71z M58.33,285.25H57.4v-5.51h2.76c-0.58-0.28-1.23-0.56-1.77-0.77l0.65-0.54
				c0.42,0.15,0.91,0.34,1.39,0.55c0.41-0.21,0.83-0.46,1.18-0.72h-4.16v-0.79h5.09l0.2-0.05l0.6,0.48
				c-0.56,0.52-1.3,1.05-2.05,1.46c0.28,0.13,0.53,0.26,0.73,0.38h1.32v4.58c0,0.45-0.08,0.68-0.39,0.82
				c-0.3,0.13-0.75,0.14-1.44,0.14c-0.03-0.25-0.15-0.58-0.27-0.81c0.45,0.02,0.86,0.01,0.99,0.01c0.12,0,0.16-0.04,0.16-0.17v-0.75
				h-1.6v1.66h-0.9v-1.66h-1.55V285.25z M58.33,280.49v0.79h1.55v-0.79H58.33z M59.88,282.81v-0.81h-1.55v0.81H59.88z M62.39,280.49
				h-1.6v0.79h1.6V280.49z M62.39,282.81v-0.81h-1.6v0.81H62.39z"/>
			<path d="M57.38,288.44c-0.19,0.66-0.4,1.9-0.46,2.57c0.45-0.96,1.46-2.06,2.72-2.06c1.41,0,2.46,1.4,2.46,3.64
				c0,2.92-1.81,4.25-4.48,4.73L57,296.36c2.28-0.34,3.99-1.19,3.99-3.76c0-1.63-0.54-2.68-1.54-2.68c-1.27,0-2.41,1.86-2.51,3.24
				c-0.04,0.33-0.03,0.7,0.03,1.19l-1.02,0.08c-0.05-0.4-0.12-1.01-0.12-1.69c0-0.98,0.17-2.41,0.3-3.36
				c0.05-0.35,0.08-0.71,0.09-0.98L57.38,288.44z"/>
		</g>
		<g>
			<path d="M436.79,264.22c-0.67,0.5-1.51,0.99-2.23,1.36c0.76,0.54,1.71,0.93,2.83,1.14c-0.23,0.2-0.51,0.62-0.63,0.89
				c-2.43-0.56-3.97-1.87-4.87-3.94h-1.4v2.57l2.59-0.4l0.05,0.88c-1.69,0.29-3.5,0.58-4.78,0.79l-0.24-0.91
				c0.39-0.05,0.85-0.12,1.34-0.19v-2.73h-1.84v-0.89h1.85v-4.67h6.65v0.84h-5.64v0.74h5.32v0.8h-5.32v0.74h5.32v0.8h-5.32v0.75
				h6.71v0.89h-1.22L436.79,264.22z M432.91,263.68c0.27,0.5,0.6,0.96,1,1.36c0.71-0.4,1.53-0.92,2.05-1.36H432.91z"/>
			<path d="M430.61,276.64c0.69-0.09,1.4-0.17,2.1-0.27l0.02,0.88c-1.84,0.28-3.8,0.54-5.15,0.73l-0.11-0.98
				c0.59-0.06,1.34-0.15,2.17-0.26v-1.39h-1.84v-0.9h1.84v-1.07h-1.84V269h4.67v4.39h-1.86v1.07h1.86v0.9h-1.86V276.64z
				 M428.63,270.81h1.08v-1h-1.08V270.81z M428.63,272.58h1.08v-1.01h-1.08V272.58z M431.61,269.81h-1.06v1h1.06V269.81z
				 M431.61,271.57h-1.06v1.01h1.06V271.57z M437.44,272.58c-0.24,0.91-0.54,1.96-0.84,2.61l-0.81-0.21c0.16-0.4,0.33-1,0.48-1.59
				h-1.01v3.81c0,0.52-0.1,0.81-0.46,0.96c-0.37,0.17-0.93,0.18-1.72,0.18c-0.03-0.28-0.16-0.71-0.3-0.99
				c0.57,0.02,1.12,0.02,1.28,0.01c0.16,0,0.22-0.04,0.22-0.18v-3.79h-1.59v-0.95h2.56c-0.59-0.48-1.4-1.02-2.12-1.39l0.62-0.61
				c0.32,0.16,0.67,0.34,1,0.55c0.34-0.32,0.69-0.72,0.97-1.1h-2.9v-0.89h3.59l0.2-0.05l0.65,0.45c-0.45,0.71-1.12,1.48-1.79,2.07
				c0.35,0.25,0.67,0.5,0.9,0.72l-0.24,0.26h0.46l0.16-0.03L437.44,272.58z"/>
			<path d="M433.21,283.24c0.73,2.24,2.09,4.06,4.12,4.91c-0.25,0.21-0.58,0.63-0.74,0.94c-2.01-0.94-3.31-2.68-4.15-4.96
				c-0.55,1.95-1.71,3.81-4.15,4.96c-0.16-0.27-0.48-0.62-0.76-0.84c2.56-1.12,3.6-3.05,4.03-5h-3.82v-1.03h4
				c0.13-1.08,0.12-2.11,0.13-2.97h1.09c-0.01,0.87-0.02,1.9-0.15,2.97h4.33v1.03H433.21z"/>
			<path d="M429.93,297.61c0.46,0.75,1.31,1.08,2.5,1.13c1.22,0.05,3.69,0.02,5.06-0.08c-0.11,0.23-0.27,0.69-0.32,0.98
				c-1.24,0.05-3.5,0.08-4.74,0.03c-1.33-0.05-2.26-0.41-2.92-1.24c-0.52,0.44-1.05,0.88-1.66,1.33l-0.47-0.99
				c0.49-0.3,1.09-0.71,1.6-1.12v-2.57h-1.47v-0.92h2.43V297.61z M429.45,292.62c-0.34-0.53-1.12-1.28-1.8-1.78l0.7-0.62
				c0.67,0.46,1.47,1.16,1.84,1.68L429.45,292.62z M431.88,298.16h-0.94v-5.51h2.76c-0.58-0.28-1.23-0.56-1.77-0.77l0.65-0.54
				c0.42,0.15,0.91,0.34,1.39,0.55c0.41-0.21,0.83-0.46,1.18-0.72h-4.16v-0.79h5.09l0.2-0.05l0.6,0.48
				c-0.56,0.52-1.3,1.05-2.05,1.46c0.28,0.13,0.53,0.26,0.73,0.38h1.32v4.58c0,0.45-0.08,0.68-0.39,0.82
				c-0.3,0.13-0.75,0.14-1.44,0.14c-0.03-0.25-0.15-0.58-0.27-0.81c0.45,0.02,0.86,0.01,0.99,0.01c0.12,0,0.16-0.04,0.16-0.17v-0.75
				h-1.6v1.66h-0.9v-1.66h-1.55V298.16z M431.88,293.4v0.79h1.55v-0.79H431.88z M433.43,295.72v-0.81h-1.55v0.81H433.43z
				 M435.94,293.4h-1.6v0.79h1.6V293.4z M435.94,295.72v-0.81h-1.6v0.81H435.94z"/>
			<path d="M430.93,301.35c-0.19,0.66-0.4,1.9-0.46,2.57c0.45-0.96,1.46-2.06,2.72-2.06c1.41,0,2.46,1.4,2.46,3.64
				c0,2.92-1.81,4.25-4.48,4.73l-0.62-0.96c2.28-0.34,3.99-1.19,3.99-3.76c0-1.63-0.54-2.68-1.54-2.68c-1.27,0-2.41,1.86-2.51,3.24
				c-0.04,0.33-0.03,0.7,0.03,1.19l-1.02,0.08c-0.05-0.4-0.12-1.01-0.12-1.69c0-0.98,0.17-2.41,0.3-3.36
				c0.05-0.35,0.08-0.71,0.09-0.98L430.93,301.35z"/>
		</g>
		<line class="st12" x1="419" y1="225" x2="239" y2="225"/>
		<g>
			<path d="M296.12,210.38c-0.15-0.31-0.45-0.85-0.74-1.32v5.31h-0.92v-4.55c-0.32,1.02-0.72,1.97-1.15,2.58
				c-0.1-0.27-0.33-0.65-0.47-0.86c0.63-0.88,1.25-2.47,1.54-3.84h-1.31v-0.93h1.4v-2.27h0.92v2.27h1.15v0.93h-1.15v0.24
				c0.32,0.4,1.1,1.44,1.27,1.7L296.12,210.38z M302.8,214.02h-4.22v0.33h-0.94v-3.75c-0.25,0.28-0.51,0.54-0.77,0.76
				c-0.14-0.18-0.5-0.57-0.7-0.74c0.8-0.6,1.47-1.43,2.01-2.4h-1.51v-0.85h0.77c-0.19-0.15-0.57-0.4-0.8-0.52
				c0.57-0.58,1.04-1.51,1.3-2.41l0.93,0.21c-0.1,0.3-0.2,0.59-0.32,0.88h3.92v0.84h-2.5c-0.12,0.33-0.24,0.67-0.37,0.99h3.17v0.85
				h-2.27l0.83,0.16c-0.13,0.25-0.27,0.5-0.4,0.73h1.67v0.72h-1.86v0.68h1.65v0.67h-1.65v0.69h1.66v0.67h-1.66v0.72h2.04V214.02z
				 M298.61,207.38c0.14-0.32,0.27-0.65,0.38-0.99h-0.83c-0.21,0.38-0.44,0.72-0.68,0.99H298.61z M299.87,209.84h-1.28v0.68h1.28
				V209.84z M299.87,211.18h-1.28v0.69h1.28V211.18z M298.59,213.26h1.28v-0.72h-1.28V213.26z M299.23,208.23
				c-0.15,0.31-0.31,0.6-0.48,0.89h1.22c0.15-0.3,0.29-0.63,0.39-0.89H299.23z"/>
			<path d="M313.3,213.22v0.88h-9.35v-0.88h4.13v-1.09h-3.18v-0.87h3.18v-0.9h-2.42v-2.59h5.94v2.59h-2.51v0.9h3.39v0.87h-3.39v1.09
				H313.3z M304.91,208.58H304v-2.42h1.74c-0.19-0.38-0.49-0.85-0.79-1.2l0.89-0.36c0.37,0.42,0.75,0.99,0.92,1.38l-0.4,0.18h1.71
				v-1.67h1.01v1.67h1.84l-0.51-0.18c0.31-0.39,0.7-0.99,0.93-1.42l1.04,0.33c-0.33,0.47-0.7,0.94-1.02,1.27h1.88v2.42h-0.96v-1.55
				h-7.39V208.58z M306.59,209.57h4.02v-1.02h-4.02V209.57z"/>
			<path d="M324.12,206.26c-0.1,0.12-0.27,0.32-0.35,0.45c-0.46,0.79-1.48,2.15-2.64,2.97l-0.89-0.72c0.94-0.55,1.88-1.61,2.19-2.23
				h-5.91c-0.42,0-0.8,0.03-1.26,0.06v-1.19c0.4,0.05,0.84,0.1,1.26,0.1h6.01c0.25,0,0.73-0.03,0.9-0.08L324.12,206.26z
				 M319.78,207.69c0,2.81-0.16,4.87-2.99,6.33l-0.99-0.81c0.31-0.11,0.69-0.28,1.03-0.53c1.54-0.99,1.79-2.35,1.79-4.13
				c0-0.29-0.01-0.55-0.06-0.86H319.78z"/>
			<path d="M325.8,208.73c0.34,0.03,1.01,0.06,1.59,0.06h5.84c0.53,0,0.95-0.04,1.2-0.06v1.32c-0.24-0.01-0.72-0.04-1.19-0.04h-5.85
				c-0.6,0-1.24,0.02-1.59,0.04V208.73z"/>
			<path d="M344.33,206.92c0.27,0,0.73-0.01,1.05-0.06v1.16c-0.37-0.02-0.81-0.03-1.05-0.03h-1.68c-0.19,2.98-1.36,4.84-3.25,6.04
				l-1.14-0.77c0.33-0.14,0.69-0.34,0.94-0.54c1.09-0.83,2.13-2.21,2.29-4.72h-2.55c-0.44,0.8-1.13,1.75-1.76,2.29l-1.06-0.65
				c0.76-0.57,1.51-1.61,1.89-2.27c0.29-0.53,0.48-1.08,0.61-1.5c0.09-0.28,0.16-0.63,0.18-0.96l1.31,0.26
				c-0.11,0.25-0.23,0.58-0.31,0.81c-0.1,0.27-0.21,0.6-0.35,0.95H344.33z"/>
			<path d="M347.32,208.73c0.34,0.03,1.01,0.06,1.59,0.06h5.84c0.53,0,0.95-0.04,1.2-0.06v1.32c-0.24-0.01-0.72-0.04-1.19-0.04
				h-5.85c-0.6,0-1.24,0.02-1.59,0.04V208.73z"/>
			<path d="M361.34,208.15c1.42,0.42,3.49,1.19,4.55,1.72l-0.47,1.16c-1.14-0.6-2.89-1.28-4.08-1.67l0.01,3.32
				c0,0.33,0.03,0.98,0.08,1.38h-1.31c0.05-0.38,0.09-0.97,0.09-1.38v-6.22c0-0.34-0.03-0.85-0.1-1.21h1.32
				c-0.03,0.36-0.09,0.82-0.09,1.21V208.15z M364.42,207.63c-0.28-0.61-0.58-1.13-0.95-1.65l0.72-0.31
				c0.29,0.42,0.74,1.12,0.98,1.62L364.42,207.63z M365.82,207.06c-0.31-0.61-0.61-1.11-0.99-1.61l0.72-0.33
				c0.29,0.4,0.75,1.1,1,1.59L365.82,207.06z"/>
		</g>
		<path class="st13" d="M82.67,182.98c-1.21-2.09-4.55-3.37-11.48-3.5c-6.93,0.13-10.27,1.41-11.48,3.5
			c-1.21,2.09-0.64,5.63,2.71,11.7c3.58,5.93,6.36,8.19,8.78,8.19c2.42,0,5.19-2.26,8.78-8.19
			C83.31,188.61,83.88,185.07,82.67,182.98z"/>
		<g>
			<path class="st9" d="M70.22,192.05h-1.5v-2.89c0-0.35,0.01-0.67,0.02-0.96c-0.09,0.11-0.21,0.23-0.34,0.35l-0.62,0.51l-0.77-0.94
				l1.88-1.53h1.33V192.05z"/>
			<path class="st9" d="M75.42,189.09c0,1.07-0.23,1.84-0.69,2.32c-0.46,0.48-1.2,0.72-2.21,0.72c-0.33,0-0.59-0.01-0.76-0.04v-1.17
				c0.21,0.04,0.43,0.06,0.64,0.06c0.53,0,0.94-0.11,1.22-0.33c0.29-0.22,0.44-0.56,0.47-1.03h-0.04c-0.1,0.18-0.19,0.31-0.29,0.39
				c-0.09,0.08-0.21,0.14-0.35,0.18c-0.14,0.04-0.31,0.06-0.51,0.06c-0.47,0-0.84-0.16-1.11-0.47s-0.4-0.75-0.4-1.31
				c0-0.61,0.17-1.08,0.52-1.42c0.35-0.34,0.82-0.52,1.42-0.52c0.67,0,1.19,0.22,1.55,0.67C75.24,187.64,75.42,188.27,75.42,189.09z
				 M73.36,187.71c-0.16,0-0.29,0.06-0.39,0.18s-0.15,0.3-0.15,0.56c0,0.2,0.04,0.37,0.13,0.49c0.09,0.12,0.22,0.18,0.4,0.18
				c0.16,0,0.3-0.06,0.42-0.18s0.18-0.26,0.18-0.42c0-0.22-0.06-0.41-0.17-0.57S73.53,187.71,73.36,187.71z"/>
		</g>
		<g>
			<rect x="408" y="117" class="st9" width="21" height="7"/>
			<g>
				<g>
					<path d="M411.54,126.08c-3.42,0-6.21-2.79-6.21-6.21s2.79-6.21,6.21-6.21h13.97c3.42,0,6.21,2.79,6.21,6.21
						s-2.79,6.21-6.21,6.21H411.54z M425.51,117.43c-1.35,0-2.44,1.1-2.44,2.44c0,1.35,1.09,2.44,2.44,2.44s2.44-1.1,2.44-2.44
						C427.95,118.53,426.85,117.43,425.51,117.43z M418.52,117.43c-1.35,0-2.44,1.1-2.44,2.44c0,1.35,1.09,2.44,2.44,2.44
						c1.35,0,2.44-1.1,2.44-2.44C420.96,118.53,419.87,117.43,418.52,117.43L418.52,117.43z M411.54,117.43
						c-1.35,0-2.44,1.09-2.44,2.44c0,1.35,1.1,2.44,2.44,2.44c1.35,0,2.44-1.1,2.44-2.44C413.98,118.53,412.88,117.43,411.54,117.43
						z"/>
					<path class="st9" d="M425.51,114.2c3.13,0,5.67,2.54,5.67,5.67c0,3.13-2.55,5.67-5.67,5.67h-6.98h-6.98
						c-3.13,0-5.67-2.54-5.67-5.67c0-3.13,2.54-5.67,5.67-5.67h6.98H425.51 M425.51,122.85c1.65,0,2.98-1.33,2.98-2.98
						c0-1.65-1.33-2.98-2.98-2.98c-1.64,0-2.98,1.33-2.98,2.98C422.53,121.52,423.86,122.85,425.51,122.85 M418.52,122.85
						c1.65,0,2.98-1.33,2.98-2.98c0-1.65-1.33-2.98-2.98-2.98v0c-1.64,0-2.98,1.33-2.98,2.98
						C415.54,121.52,416.88,122.85,418.52,122.85 M411.54,122.85c1.65,0,2.98-1.33,2.98-2.98c0-1.65-1.33-2.98-2.98-2.98
						c-1.65,0-2.98,1.33-2.98,2.98C408.56,121.52,409.89,122.85,411.54,122.85 M425.51,113.13h-6.98h-6.98
						c-3.72,0-6.75,3.03-6.75,6.75c0,3.72,3.03,6.75,6.75,6.75h6.98h6.98c3.72,0,6.75-3.03,6.75-6.75
						C432.25,116.15,429.23,113.13,425.51,113.13L425.51,113.13z M425.51,121.78c-1.05,0-1.9-0.85-1.9-1.9c0-1.05,0.85-1.9,1.9-1.9
						c1.05,0,1.9,0.85,1.9,1.9C427.41,120.92,426.56,121.78,425.51,121.78L425.51,121.78z M418.52,121.78c-1.05,0-1.9-0.85-1.9-1.9
						c0-1.05,0.85-1.9,1.9-1.9h0.09c1.01,0.04,1.82,0.88,1.82,1.9C420.43,120.92,419.57,121.78,418.52,121.78L418.52,121.78z
						 M411.54,121.78c-1.05,0-1.9-0.85-1.9-1.9c0-1.05,0.85-1.9,1.9-1.9c1.05,0,1.9,0.85,1.9,1.9
						C413.44,120.92,412.59,121.78,411.54,121.78L411.54,121.78z"/>
				</g>
			</g>
		</g>
		<g>
			<rect x="406" y="220" class="st9" width="21" height="6"/>
			<g>
				<g>
					<path d="M409.39,228.81c-3.42,0-6.21-2.79-6.21-6.21c0-3.42,2.79-6.21,6.21-6.21h13.97c3.42,0,6.21,2.79,6.21,6.21
						c0,3.42-2.79,6.21-6.21,6.21H409.39z M423.36,220.17c-1.35,0-2.44,1.09-2.44,2.44c0,1.35,1.1,2.44,2.44,2.44
						c1.35,0,2.44-1.1,2.44-2.44C425.8,221.26,424.7,220.17,423.36,220.17z M416.37,220.17c-1.35,0-2.44,1.1-2.44,2.44
						c0,1.35,1.1,2.44,2.44,2.44c1.35,0,2.44-1.1,2.44-2.44C418.81,221.26,417.72,220.17,416.37,220.17L416.37,220.17z
						 M409.39,220.17c-1.35,0-2.44,1.09-2.44,2.44c0,1.35,1.1,2.44,2.44,2.44c1.34,0,2.44-1.1,2.44-2.44
						C411.83,221.26,410.73,220.17,409.39,220.17z"/>
					<path class="st9" d="M423.36,216.93c3.13,0,5.67,2.55,5.67,5.67c0,3.13-2.55,5.67-5.67,5.67h-6.98h-6.98
						c-3.13,0-5.67-2.54-5.67-5.67c0-3.13,2.54-5.67,5.67-5.67h6.98H423.36 M423.36,225.59c1.65,0,2.98-1.33,2.98-2.98
						c0-1.65-1.33-2.98-2.98-2.98c-1.64,0-2.98,1.33-2.98,2.98C420.38,224.25,421.71,225.59,423.36,225.59 M416.37,225.59
						c1.65,0,2.98-1.33,2.98-2.98c0-1.65-1.33-2.98-2.98-2.98v0c-1.64,0-2.98,1.33-2.98,2.98
						C413.39,224.25,414.73,225.59,416.37,225.59 M409.39,225.59c1.65,0,2.98-1.33,2.98-2.98c0-1.65-1.33-2.98-2.98-2.98
						c-1.65,0-2.98,1.33-2.98,2.98C406.41,224.25,407.74,225.59,409.39,225.59 M423.36,215.86h-6.98h-6.98
						c-3.72,0-6.75,3.03-6.75,6.75c0,3.72,3.03,6.75,6.75,6.75h6.98h6.98c3.72,0,6.75-3.03,6.75-6.75
						C430.1,218.88,427.08,215.86,423.36,215.86L423.36,215.86z M423.36,224.51c-1.05,0-1.9-0.85-1.9-1.9c0-1.05,0.85-1.9,1.9-1.9
						c1.05,0,1.9,0.85,1.9,1.9C425.26,223.66,424.41,224.51,423.36,224.51L423.36,224.51z M416.37,224.51c-1.05,0-1.9-0.85-1.9-1.9
						c0-1.05,0.85-1.9,1.9-1.9h0.09c1.01,0.04,1.82,0.88,1.82,1.9C418.27,223.66,417.42,224.51,416.37,224.51L416.37,224.51z
						 M409.39,224.51c-1.05,0-1.9-0.85-1.9-1.9c0-1.05,0.85-1.9,1.9-1.9c1.05,0,1.9,0.85,1.9,1.9
						C411.29,223.66,410.44,224.51,409.39,224.51L409.39,224.51z"/>
				</g>
			</g>
		</g>
		<g>
			<path class="st9" d="M254.22,548.01c-0.36,1.02-0.91,2.16-1.43,3.07c1.21,0.03,2.52-0.24,3.88-0.81
				c-0.1,0.38-0.09,1.04-0.04,1.42c-3.03,1.15-5.64,0.85-8.11-0.73l-1.51,1.01l1.86,2.78l2.51-2.3l0.7,0.91
				c-1.61,1.53-3.36,3.15-4.59,4.3l-0.92-0.81c0.38-0.34,0.83-0.74,1.31-1.18l-1.97-2.95l-1.99,1.33l-0.65-0.96l2-1.34l-3.37-5.04
				l7.18-4.8l0.61,0.91l-6.09,4.07l0.54,0.8l5.75-3.85l0.58,0.86l-5.75,3.85l0.54,0.8l5.75-3.85l0.58,0.86l-5.75,3.85l0.54,0.81
				l7.25-4.85l0.65,0.96l-1.31,0.88L254.22,548.01z M249.63,550.23c0.66,0.35,1.34,0.6,2.06,0.74c0.48-0.94,0.99-2.09,1.24-2.95
				L249.63,550.23z"/>
			<path class="st9" d="M260.38,546.49c0.68-0.59,1.39-1.2,2.07-1.81l0.66,0.94c-1.78,1.63-3.71,3.33-5.04,4.51l-0.82-0.98
				c0.59-0.5,1.34-1.13,2.16-1.85l-1-1.5l-1.99,1.33l-0.65-0.98l1.99-1.33l-0.77-1.15l-1.99,1.33l-3.17-4.74l5.04-3.37l3.17,4.74
				l-2.01,1.34l0.77,1.15l2.01-1.34l0.65,0.97l-2.01,1.35L260.38,546.49z M254.03,541.62l1.16-0.78l-0.72-1.08l-1.16,0.78
				L254.03,541.62z M255.31,543.54l1.16-0.78l-0.73-1.09l-1.16,0.78L255.31,543.54z M256.52,538.39l-1.15,0.77l0.72,1.08l1.15-0.77
				L256.52,538.39z M257.8,540.29l-1.15,0.77l0.73,1.09l1.15-0.77L257.8,540.29z M264.82,537.17c0.41,1.16,0.83,2.5,0.98,3.43
				l-1.02,0.36c-0.11-0.55-0.36-1.32-0.63-2.07l-1.09,0.73l2.75,4.11c0.37,0.56,0.48,0.94,0.19,1.37c-0.27,0.45-0.87,0.87-1.73,1.44
				c-0.24-0.28-0.69-0.65-1.04-0.85c0.63-0.39,1.22-0.79,1.39-0.92c0.17-0.12,0.2-0.2,0.1-0.35l-2.74-4.09l-1.72,1.15l-0.68-1.02
				l2.76-1.85c-0.99-0.1-2.25-0.09-3.29,0.03l0.23-1.11c0.47-0.06,0.97-0.11,1.48-0.13c0.14-0.6,0.22-1.28,0.25-1.88l-3.14,2.1
				l-0.65-0.96l3.88-2.6l0.18-0.21l1.02,0.02c0.03,1.09-0.14,2.41-0.44,3.52c0.56,0.01,1.08,0.05,1.5,0.13l-0.07,0.45l0.5-0.33
				l0.15-0.15L264.82,537.17z"/>
			<path class="st9" d="M271.51,534.48c0,0,0.17,0.29,0.25,0.42c1.74,2.9,2.31,4.04,2.26,4.59c-0.04,0.35-0.17,0.57-0.42,0.77
				c-0.22,0.2-0.62,0.46-1.05,0.72c-0.18-0.25-0.52-0.56-0.81-0.7c0.39-0.2,0.72-0.41,0.87-0.51c0.14-0.09,0.22-0.18,0.24-0.34
				c0.02-0.22-0.14-0.63-0.58-1.46l-0.28,0.41c-0.36-0.34-1.03-0.81-1.61-1.09l0.36-0.47c0.46,0.21,0.96,0.53,1.33,0.81
				c-0.24-0.44-0.55-0.98-0.95-1.62l-3.51,2.35l-4.07-6.09l4.32-2.89l0.6,0.89l-1.56,1.04l0.58,0.86l1.35-0.9l0.57,0.85l-1.35,0.9
				l0.59,0.88l1.35-0.9l0.57,0.85l-1.35,0.9l0.6,0.89L271.51,534.48z M265.05,532.52l0.58,0.86l0.95-0.64l-0.58-0.86L265.05,532.52z
				 M267.15,533.59l-0.95,0.64l0.59,0.88l0.95-0.64L267.15,533.59z M267.95,536.86l0.95-0.64l-0.6-0.89l-0.95,0.64L267.95,536.86z
				 M269.09,541.98c0.01-0.87-0.52-1.99-1.15-3.03l0.69-0.3c0.66,1.11,1.28,2.29,1.26,3.26L269.09,541.98z M274.78,531.8
				c1.67,1.77,3.47,2.99,5.29,2.97c-0.11,0.34-0.16,0.97-0.11,1.34c-2.17-0.06-4.14-1.5-6.14-3.66l-0.82,0.55
				c1.13,1.77,2.37,4.1,2.33,6.2c-0.3-0.05-0.93-0.03-1.24,0.03c0.05-2.17-1.31-4.37-2.43-6.04l-2.94-4.39l4.56-3.06l3.27,4.89
				L274.78,531.8z M269.41,538.23c0.57,0.6,1.2,1.42,1.57,1.99l-0.49,0.45c-0.37-0.6-1-1.42-1.56-2.03L269.41,538.23z
				 M271.35,539.58c-0.37-0.48-1.06-1.14-1.66-1.6l0.43-0.44c0.6,0.44,1.3,1.09,1.69,1.56L271.35,539.58z M270.38,529.1l1.94,2.9
				l2.58-1.73l-1.94-2.9L270.38,529.1z"/>
		</g>
		<path d="M439.67,202.77c0,1.39-1.12,2.51-2.51,2.51c-1.39,0-2.51-1.12-2.51-2.51c0-1.39,1.12-2.51,2.51-2.51
			C438.55,200.26,439.67,201.38,439.67,202.77z"/>
		<path d="M439.67,137.15c0,1.39-1.12,2.51-2.51,2.51c-1.39,0-2.51-1.12-2.51-2.51c0-1.38,1.12-2.51,2.51-2.51
			C438.55,134.64,439.67,135.77,439.67,137.15z"/>
		<rect x="428.74" y="166.48" class="st14" width="22" height="22"/>
		<rect x="428.74" y="146.98" class="st15" width="22" height="19.5"/>
	</g>
</g>
<g>
	<path class="st9" d="M447.74,181.48l-5.4-9.24l-3.31,0l-5.4,9.24h3.53l0,0h5.07H447.74z M439.25,172.61h2.67l-4.97,8.5l-2.67,0
		L439.25,172.61z M439.81,176.95l2.43-4.16l2.43,4.16l2.43,4.16l-4.86,0l-4.86,0L439.81,176.95z"/>
</g>
<g>
	<path d="M443.4,155.41c0,0.92-0.29,1.63-0.86,2.12s-1.4,0.73-2.46,0.73h-0.78v3.05h-1.82v-8.57h2.74c1.04,0,1.83,0.22,2.37,0.67
		S443.4,154.52,443.4,155.41z M439.3,156.77h0.6c0.56,0,0.98-0.11,1.25-0.33s0.42-0.54,0.42-0.96c0-0.43-0.12-0.74-0.35-0.94
		s-0.6-0.3-1.09-0.3h-0.83V156.77z"/>
</g>
</svg>
